%TF.GenerationSoftware,KiCad,Pcbnew,8.0.4*%
%TF.CreationDate,2024-08-09T19:06:39+02:00*%
%TF.ProjectId,Water Tank Monitor,57617465-7220-4546-916e-6b204d6f6e69,rev?*%
%TF.SameCoordinates,Original*%
%TF.FileFunction,Copper,L1,Top*%
%TF.FilePolarity,Positive*%
%FSLAX46Y46*%
G04 Gerber Fmt 4.6, Leading zero omitted, Abs format (unit mm)*
G04 Created by KiCad (PCBNEW 8.0.4) date 2024-08-09 19:06:39*
%MOMM*%
%LPD*%
G01*
G04 APERTURE LIST*
G04 Aperture macros list*
%AMRoundRect*
0 Rectangle with rounded corners*
0 $1 Rounding radius*
0 $2 $3 $4 $5 $6 $7 $8 $9 X,Y pos of 4 corners*
0 Add a 4 corners polygon primitive as box body*
4,1,4,$2,$3,$4,$5,$6,$7,$8,$9,$2,$3,0*
0 Add four circle primitives for the rounded corners*
1,1,$1+$1,$2,$3*
1,1,$1+$1,$4,$5*
1,1,$1+$1,$6,$7*
1,1,$1+$1,$8,$9*
0 Add four rect primitives between the rounded corners*
20,1,$1+$1,$2,$3,$4,$5,0*
20,1,$1+$1,$4,$5,$6,$7,0*
20,1,$1+$1,$6,$7,$8,$9,0*
20,1,$1+$1,$8,$9,$2,$3,0*%
G04 Aperture macros list end*
%TA.AperFunction,Conductor*%
%ADD10C,0.200000*%
%TD*%
%TA.AperFunction,SMDPad,CuDef*%
%ADD11C,1.000000*%
%TD*%
%TA.AperFunction,SMDPad,CuDef*%
%ADD12RoundRect,0.200000X-0.200000X-0.275000X0.200000X-0.275000X0.200000X0.275000X-0.200000X0.275000X0*%
%TD*%
%TA.AperFunction,ComponentPad*%
%ADD13RoundRect,0.250000X-0.600000X-0.725000X0.600000X-0.725000X0.600000X0.725000X-0.600000X0.725000X0*%
%TD*%
%TA.AperFunction,ComponentPad*%
%ADD14O,1.700000X1.950000*%
%TD*%
%TA.AperFunction,SMDPad,CuDef*%
%ADD15RoundRect,0.225000X-0.225000X-0.250000X0.225000X-0.250000X0.225000X0.250000X-0.225000X0.250000X0*%
%TD*%
%TA.AperFunction,SMDPad,CuDef*%
%ADD16RoundRect,0.225000X0.225000X0.250000X-0.225000X0.250000X-0.225000X-0.250000X0.225000X-0.250000X0*%
%TD*%
%TA.AperFunction,SMDPad,CuDef*%
%ADD17R,0.550000X1.600000*%
%TD*%
%TA.AperFunction,SMDPad,CuDef*%
%ADD18R,1.600000X0.550000*%
%TD*%
%TA.AperFunction,SMDPad,CuDef*%
%ADD19R,0.400000X1.900000*%
%TD*%
%TA.AperFunction,SMDPad,CuDef*%
%ADD20R,1.020000X1.780000*%
%TD*%
%TA.AperFunction,SMDPad,CuDef*%
%ADD21RoundRect,0.218750X0.218750X0.256250X-0.218750X0.256250X-0.218750X-0.256250X0.218750X-0.256250X0*%
%TD*%
%TA.AperFunction,SMDPad,CuDef*%
%ADD22RoundRect,0.200000X0.200000X0.275000X-0.200000X0.275000X-0.200000X-0.275000X0.200000X-0.275000X0*%
%TD*%
%TA.AperFunction,ViaPad*%
%ADD23C,0.600000*%
%TD*%
%TA.AperFunction,Conductor*%
%ADD24C,0.500000*%
%TD*%
%TA.AperFunction,Conductor*%
%ADD25C,0.300000*%
%TD*%
G04 APERTURE END LIST*
D10*
%TO.N,+3.3V*%
X140200000Y-82000000D02*
X137800000Y-84400000D01*
X137800000Y-84800000D01*
X137100000Y-84800000D01*
X137100000Y-79100000D01*
X140200000Y-79100000D01*
X140200000Y-82000000D01*
%TA.AperFunction,Conductor*%
G36*
X140200000Y-82000000D02*
G01*
X137800000Y-84400000D01*
X137800000Y-84800000D01*
X137100000Y-84800000D01*
X137100000Y-79100000D01*
X140200000Y-79100000D01*
X140200000Y-82000000D01*
G37*
%TD.AperFunction*%
%TD*%
D11*
%TO.P,J5,1,Pin_1*%
%TO.N,/MISO*%
X151730000Y-74925000D03*
%TO.P,J5,2,Pin_2*%
%TO.N,+3.3V*%
X153000000Y-74925000D03*
%TO.P,J5,3,Pin_3*%
%TO.N,/SCK*%
X151730000Y-76195000D03*
%TO.P,J5,4,Pin_4*%
%TO.N,/MOSI*%
X153000000Y-76195000D03*
%TO.P,J5,5,Pin_5*%
%TO.N,/~{RST}*%
X151730000Y-77465000D03*
%TO.P,J5,6,Pin_6*%
%TO.N,GND*%
X153000000Y-77465000D03*
%TD*%
D12*
%TO.P,R3,1*%
%TO.N,/SDA*%
X146175000Y-85000000D03*
%TO.P,R3,2*%
%TO.N,+3.3V*%
X147825000Y-85000000D03*
%TD*%
D13*
%TO.P,J1,1,Pin_1*%
%TO.N,+3.3V*%
X136250000Y-68725000D03*
D14*
%TO.P,J1,2,Pin_2*%
%TO.N,GND*%
X138750000Y-68725000D03*
%TO.P,J1,3,Pin_3*%
%TO.N,/RXD*%
X141250000Y-68725000D03*
%TO.P,J1,4,Pin_4*%
%TO.N,/TXD*%
X143750000Y-68725000D03*
%TD*%
D15*
%TO.P,C3,1*%
%TO.N,GND*%
X136450000Y-89800000D03*
%TO.P,C3,2*%
%TO.N,+3.3V*%
X138000000Y-89800000D03*
%TD*%
D12*
%TO.P,R1,1*%
%TO.N,Net-(D2-A)*%
X131575000Y-82750000D03*
%TO.P,R1,2*%
%TO.N,Net-(U1-PB1)*%
X133225000Y-82750000D03*
%TD*%
D16*
%TO.P,C4,1*%
%TO.N,/~{RST}*%
X147775000Y-79000000D03*
%TO.P,C4,2*%
%TO.N,Net-(J6-Pin_5)*%
X146225000Y-79000000D03*
%TD*%
D13*
%TO.P,J3,1,Pin_1*%
%TO.N,+3.3V*%
X136250000Y-60725000D03*
D14*
%TO.P,J3,2,Pin_2*%
%TO.N,GND*%
X138750000Y-60725000D03*
%TO.P,J3,3,Pin_3*%
%TO.N,/RXD2*%
X141250000Y-60725000D03*
%TO.P,J3,4,Pin_4*%
%TO.N,/TXD2*%
X143750000Y-60725000D03*
%TD*%
D12*
%TO.P,R4,1*%
%TO.N,/SCL*%
X146175000Y-83500000D03*
%TO.P,R4,2*%
%TO.N,+3.3V*%
X147825000Y-83500000D03*
%TD*%
D15*
%TO.P,C1,1*%
%TO.N,Net-(U1-AREF)*%
X139575000Y-88250000D03*
%TO.P,C1,2*%
%TO.N,GND*%
X141125000Y-88250000D03*
%TD*%
D17*
%TO.P,U1,1,PD3*%
%TO.N,/RXD2*%
X142800000Y-77725000D03*
%TO.P,U1,2,PD4*%
%TO.N,/TXD2*%
X142000000Y-77725000D03*
%TO.P,U1,3,GND*%
%TO.N,GND*%
X141200000Y-77725000D03*
%TO.P,U1,4,VCC*%
%TO.N,+3.3V*%
X140400000Y-77725000D03*
%TO.P,U1,5,GND*%
%TO.N,GND*%
X139600000Y-77725000D03*
%TO.P,U1,6,VCC*%
%TO.N,+3.3V*%
X138800000Y-77725000D03*
%TO.P,U1,7,XTAL1/PB6*%
%TO.N,Net-(U1-XTAL1{slash}PB6)*%
X138000000Y-77725000D03*
%TO.P,U1,8,XTAL2/PB7*%
%TO.N,Net-(U1-XTAL2{slash}PB7)*%
X137200000Y-77725000D03*
D18*
%TO.P,U1,9,PD5*%
%TO.N,unconnected-(U1-PD5-Pad9)*%
X135750000Y-79175000D03*
%TO.P,U1,10,PD6*%
%TO.N,unconnected-(U1-PD6-Pad10)*%
X135750000Y-79975000D03*
%TO.P,U1,11,PD7*%
%TO.N,unconnected-(U1-PD7-Pad11)*%
X135750000Y-80775000D03*
%TO.P,U1,12,PB0*%
%TO.N,unconnected-(U1-PB0-Pad12)*%
X135750000Y-81575000D03*
%TO.P,U1,13,PB1*%
%TO.N,Net-(U1-PB1)*%
X135750000Y-82375000D03*
%TO.P,U1,14,PB2*%
%TO.N,unconnected-(U1-PB2-Pad14)*%
X135750000Y-83175000D03*
%TO.P,U1,15,PB3*%
%TO.N,/MOSI*%
X135750000Y-83975000D03*
%TO.P,U1,16,PB4*%
%TO.N,/MISO*%
X135750000Y-84775000D03*
D17*
%TO.P,U1,17,PB5*%
%TO.N,/SCK*%
X137200000Y-86225000D03*
%TO.P,U1,18,AVCC*%
%TO.N,+3.3V*%
X138000000Y-86225000D03*
%TO.P,U1,19,ADC6*%
%TO.N,unconnected-(U1-ADC6-Pad19)*%
X138800000Y-86225000D03*
%TO.P,U1,20,AREF*%
%TO.N,Net-(U1-AREF)*%
X139600000Y-86225000D03*
%TO.P,U1,21,GND*%
%TO.N,GND*%
X140400000Y-86225000D03*
%TO.P,U1,22,ADC7*%
%TO.N,unconnected-(U1-ADC7-Pad22)*%
X141200000Y-86225000D03*
%TO.P,U1,23,PC0*%
%TO.N,/CALIB*%
X142000000Y-86225000D03*
%TO.P,U1,24,PC1*%
%TO.N,/BRIGH*%
X142800000Y-86225000D03*
D18*
%TO.P,U1,25,PC2*%
%TO.N,unconnected-(U1-PC2-Pad25)*%
X144250000Y-84775000D03*
%TO.P,U1,26,PC3*%
%TO.N,unconnected-(U1-PC3-Pad26)*%
X144250000Y-83975000D03*
%TO.P,U1,27,PC4*%
%TO.N,/SDA*%
X144250000Y-83175000D03*
%TO.P,U1,28,PC5*%
%TO.N,/SCL*%
X144250000Y-82375000D03*
%TO.P,U1,29,~{RESET}/PC6*%
%TO.N,/~{RST}*%
X144250000Y-81575000D03*
%TO.P,U1,30,PD0*%
%TO.N,/RXD*%
X144250000Y-80775000D03*
%TO.P,U1,31,PD1*%
%TO.N,/TXD*%
X144250000Y-79975000D03*
%TO.P,U1,32,PD2*%
%TO.N,unconnected-(U1-PD2-Pad32)*%
X144250000Y-79175000D03*
%TD*%
D19*
%TO.P,Y1,1,1*%
%TO.N,Net-(U1-XTAL2{slash}PB7)*%
X135600000Y-75000000D03*
%TO.P,Y1,2,2*%
%TO.N,GND*%
X136800000Y-75000000D03*
%TO.P,Y1,3,3*%
%TO.N,Net-(U1-XTAL1{slash}PB6)*%
X138000000Y-75000000D03*
%TD*%
D20*
%TO.P,J4,1,Pin_1*%
%TO.N,GND*%
X136190000Y-94865000D03*
%TO.P,J4,2,Pin_2*%
%TO.N,+3.3V*%
X138730000Y-91885000D03*
%TO.P,J4,3,Pin_3*%
%TO.N,/SCL*%
X141270000Y-94865000D03*
%TO.P,J4,4,Pin_4*%
%TO.N,/SDA*%
X143810000Y-91885000D03*
%TD*%
D21*
%TO.P,D2,1,K*%
%TO.N,GND*%
X133187500Y-81275000D03*
%TO.P,D2,2,A*%
%TO.N,Net-(D2-A)*%
X131612500Y-81275000D03*
%TD*%
D15*
%TO.P,C5,1*%
%TO.N,/~{RST}*%
X146225000Y-80500000D03*
%TO.P,C5,2*%
%TO.N,GND*%
X147775000Y-80500000D03*
%TD*%
D22*
%TO.P,R2,1*%
%TO.N,+3.3V*%
X147825000Y-82000000D03*
%TO.P,R2,2*%
%TO.N,/~{RST}*%
X146175000Y-82000000D03*
%TD*%
D15*
%TO.P,C2,1*%
%TO.N,GND*%
X136450000Y-88250000D03*
%TO.P,C2,2*%
%TO.N,+3.3V*%
X138000000Y-88250000D03*
%TD*%
D23*
%TO.N,+3.3V*%
X153791985Y-75545545D03*
X139100000Y-89925000D03*
X124300000Y-89925000D03*
X131700000Y-89925000D03*
X148800000Y-82000000D03*
%TO.N,/SDA*%
X145700000Y-92800000D03*
X142808001Y-84791999D03*
%TO.N,/SCL*%
X145700000Y-93900000D03*
X142000000Y-84800000D03*
%TO.N,GND*%
X141125000Y-89250000D03*
%TO.N,/BRIGH*%
X142800000Y-87600000D03*
%TO.N,/CALIB*%
X142000000Y-87600000D03*
%TO.N,Net-(J6-Pin_5)*%
X146225000Y-74150000D03*
%TO.N,/RXD*%
X142800000Y-80800000D03*
%TO.N,/TXD*%
X142800000Y-80000000D03*
%TO.N,/MISO*%
X134300000Y-84775000D03*
X147000000Y-76900000D03*
%TO.N,/SCK*%
X136300000Y-86225000D03*
X147000000Y-77700000D03*
%TO.N,/MOSI*%
X147000000Y-76100000D03*
X134300000Y-83975000D03*
%TD*%
D24*
%TO.N,GND*%
X139600000Y-77725000D02*
X139600000Y-74200000D01*
X139600000Y-74200000D02*
X139400000Y-74000000D01*
D25*
%TO.N,/RXD2*%
X141250000Y-60725000D02*
X142725000Y-59250000D01*
X146200000Y-71153870D02*
X142800000Y-74553870D01*
X144750000Y-59250000D02*
X146200000Y-60700000D01*
X146200000Y-60700000D02*
X146200000Y-71153870D01*
X142725000Y-59250000D02*
X144750000Y-59250000D01*
X142800000Y-74553870D02*
X142800000Y-77725000D01*
%TO.N,/TXD2*%
X142000000Y-77725000D02*
X142000000Y-74575000D01*
X142000000Y-74575000D02*
X145600000Y-70975000D01*
X145600000Y-70975000D02*
X145600000Y-61850000D01*
X144475000Y-60725000D02*
X143750000Y-60725000D01*
X145600000Y-61850000D02*
X144475000Y-60725000D01*
D24*
%TO.N,GND*%
X141200000Y-77725000D02*
X141200000Y-73000000D01*
X140400000Y-86225000D02*
X140400000Y-85050000D01*
X140400000Y-85050000D02*
X140250000Y-84900000D01*
X138800000Y-84800000D02*
X141200000Y-82400000D01*
X140250000Y-84900000D02*
X138800000Y-84900000D01*
X138800000Y-84900000D02*
X138800000Y-84800000D01*
X141200000Y-82400000D02*
X141200000Y-77725000D01*
D25*
%TO.N,Net-(J6-Pin_5)*%
X146225000Y-74150000D02*
X146225000Y-79000000D01*
%TO.N,/~{RST}*%
X147775000Y-79000000D02*
X147775000Y-77925000D01*
X147775000Y-77925000D02*
X148900000Y-76800000D01*
X148900000Y-76800000D02*
X151065000Y-76800000D01*
X151065000Y-76800000D02*
X151730000Y-77465000D01*
%TO.N,/MISO*%
X147000000Y-76900000D02*
X147119239Y-76900000D01*
X147119239Y-76900000D02*
X148419239Y-75600000D01*
X148419239Y-75600000D02*
X151055000Y-75600000D01*
X151055000Y-75600000D02*
X151730000Y-74925000D01*
%TO.N,/MOSI*%
X150452918Y-75000000D02*
X151377918Y-74075000D01*
X148100000Y-75000000D02*
X150452918Y-75000000D01*
X151377918Y-74075000D02*
X153352082Y-74075000D01*
X147000000Y-76100000D02*
X148100000Y-75000000D01*
X153856769Y-76400000D02*
X153205000Y-76400000D01*
X153352082Y-74075000D02*
X154441985Y-75164903D01*
X154441985Y-75164903D02*
X154441985Y-75814784D01*
X154441985Y-75814784D02*
X153856769Y-76400000D01*
X153205000Y-76400000D02*
X153000000Y-76195000D01*
D24*
%TO.N,GND*%
X147775000Y-80500000D02*
X148800000Y-80500000D01*
X136800000Y-75000000D02*
X136800000Y-73800000D01*
D25*
%TO.N,/SCK*%
X147000000Y-77700000D02*
X147200000Y-77700000D01*
X147200000Y-77700000D02*
X148705000Y-76195000D01*
X148705000Y-76195000D02*
X151730000Y-76195000D01*
D24*
%TO.N,+3.3V*%
X153171440Y-74925000D02*
X153791985Y-75545545D01*
X153000000Y-74925000D02*
X153171440Y-74925000D01*
X147825000Y-85000000D02*
X147574780Y-85000000D01*
X147574780Y-85000000D02*
X146649780Y-85925000D01*
X146649780Y-85925000D02*
X145675000Y-85925000D01*
X141600000Y-90000000D02*
X139175000Y-90000000D01*
X145675000Y-85925000D02*
X141600000Y-90000000D01*
X139175000Y-90000000D02*
X139100000Y-89925000D01*
X147825000Y-83500000D02*
X147825000Y-85000000D01*
X147825000Y-82000000D02*
X147825000Y-83500000D01*
D25*
%TO.N,/SDA*%
X142808001Y-84791999D02*
X142808001Y-83516999D01*
X142808001Y-83516999D02*
X143150000Y-83175000D01*
X143150000Y-83175000D02*
X144250000Y-83175000D01*
%TO.N,/SCL*%
X142000000Y-84800000D02*
X142000000Y-83650000D01*
X143275000Y-82375000D02*
X144250000Y-82375000D01*
X142000000Y-83650000D02*
X143275000Y-82375000D01*
%TO.N,/SDA*%
X144250000Y-83175000D02*
X145225000Y-83175000D01*
X145225000Y-83175000D02*
X145400000Y-83350000D01*
X145400000Y-84225000D02*
X146175000Y-85000000D01*
X145400000Y-83350000D02*
X145400000Y-84225000D01*
%TO.N,/SCL*%
X144250000Y-82375000D02*
X145050000Y-82375000D01*
X145050000Y-82375000D02*
X146175000Y-83500000D01*
%TO.N,/~{RST}*%
X146225000Y-80500000D02*
X146275000Y-80500000D01*
X146275000Y-80500000D02*
X147775000Y-79000000D01*
X146175000Y-82000000D02*
X146175000Y-80550000D01*
X146175000Y-80550000D02*
X146225000Y-80500000D01*
X144250000Y-81575000D02*
X145750000Y-81575000D01*
X145750000Y-81575000D02*
X146175000Y-82000000D01*
D24*
%TO.N,+3.3V*%
X147825000Y-82000000D02*
X148800000Y-82000000D01*
X139175000Y-79400000D02*
X140400000Y-79400000D01*
X138730000Y-90295000D02*
X139100000Y-89925000D01*
X138730000Y-91885000D02*
X138730000Y-90530000D01*
X140400000Y-73650000D02*
X140400000Y-77725000D01*
X136250000Y-69500000D02*
X140400000Y-73650000D01*
D25*
X131700000Y-89925000D02*
X124425000Y-89925000D01*
D24*
X138800000Y-79025000D02*
X139175000Y-79400000D01*
X138730000Y-90530000D02*
X138000000Y-89800000D01*
X136250000Y-68725000D02*
X136250000Y-69500000D01*
X140400000Y-79400000D02*
X140400000Y-77725000D01*
X138730000Y-91885000D02*
X138730000Y-90295000D01*
X136250000Y-68725000D02*
X136250000Y-60725000D01*
X138800000Y-77725000D02*
X138800000Y-79025000D01*
X138000000Y-88250000D02*
X138000000Y-86225000D01*
X138000000Y-89800000D02*
X138000000Y-88250000D01*
D25*
%TO.N,/SDA*%
X144785000Y-91885000D02*
X143810000Y-91885000D01*
X145700000Y-92800000D02*
X144785000Y-91885000D01*
%TO.N,/SCL*%
X144735000Y-94865000D02*
X141270000Y-94865000D01*
X145700000Y-93900000D02*
X144735000Y-94865000D01*
D24*
%TO.N,GND*%
X141125000Y-89250000D02*
X141125000Y-88250000D01*
X140400000Y-87525000D02*
X140400000Y-86225000D01*
X141125000Y-88250000D02*
X140400000Y-87525000D01*
D25*
%TO.N,/BRIGH*%
X142800000Y-87600000D02*
X142800000Y-86225000D01*
%TO.N,/CALIB*%
X142000000Y-87600000D02*
X142000000Y-86225000D01*
%TO.N,Net-(D2-A)*%
X131612500Y-82712500D02*
X131612500Y-81275000D01*
X131575000Y-82750000D02*
X131612500Y-82712500D01*
%TO.N,Net-(U1-AREF)*%
X139575000Y-88250000D02*
X139600000Y-88225000D01*
X139600000Y-88225000D02*
X139600000Y-86225000D01*
%TO.N,Net-(U1-XTAL1{slash}PB6)*%
X138000000Y-77725000D02*
X138000000Y-75000000D01*
%TO.N,Net-(U1-XTAL2{slash}PB7)*%
X137200000Y-77725000D02*
X135600000Y-76125000D01*
X135600000Y-76125000D02*
X135600000Y-75000000D01*
%TO.N,Net-(U1-PB1)*%
X133225000Y-82750000D02*
X134450000Y-82750000D01*
X135750000Y-82375000D02*
X134825000Y-82375000D01*
X134825000Y-82375000D02*
X134450000Y-82750000D01*
%TO.N,/RXD*%
X142825000Y-80775000D02*
X144250000Y-80775000D01*
X142800000Y-80800000D02*
X142825000Y-80775000D01*
%TO.N,/TXD*%
X142825000Y-79975000D02*
X144250000Y-79975000D01*
X142800000Y-80000000D02*
X142825000Y-79975000D01*
%TO.N,/MISO*%
X135750000Y-84775000D02*
X134300000Y-84775000D01*
%TO.N,/SCK*%
X137200000Y-86225000D02*
X136300000Y-86225000D01*
%TO.N,/MOSI*%
X135750000Y-83975000D02*
X134300000Y-83975000D01*
D24*
%TO.N,GND*%
X153000000Y-77465000D02*
X153065000Y-77465000D01*
%TO.N,+3.3V*%
X138000000Y-86225000D02*
X138000000Y-84500000D01*
X138000000Y-84500000D02*
X140400000Y-82100000D01*
X140400000Y-82100000D02*
X140400000Y-79400000D01*
%TD*%
%TA.AperFunction,Conductor*%
%TO.N,GND*%
G36*
X150342539Y-57020185D02*
G01*
X150388294Y-57072989D01*
X150399500Y-57124500D01*
X150399500Y-61365891D01*
X150433608Y-61493187D01*
X150465683Y-61548741D01*
X150499500Y-61607314D01*
X150592686Y-61700500D01*
X150706814Y-61766392D01*
X150834108Y-61800500D01*
X154725500Y-61800500D01*
X154792539Y-61820185D01*
X154838294Y-61872989D01*
X154849500Y-61924500D01*
X154849500Y-67975500D01*
X154829815Y-68042539D01*
X154777011Y-68088294D01*
X154725500Y-68099500D01*
X150834108Y-68099500D01*
X150706812Y-68133608D01*
X150592686Y-68199500D01*
X150592683Y-68199502D01*
X150499502Y-68292683D01*
X150499500Y-68292686D01*
X150433608Y-68406812D01*
X150399500Y-68534108D01*
X150399500Y-72765891D01*
X150433608Y-72893187D01*
X150466554Y-72950250D01*
X150499500Y-73007314D01*
X150592686Y-73100500D01*
X150706814Y-73166392D01*
X150834108Y-73200500D01*
X151180982Y-73200500D01*
X151248021Y-73220185D01*
X151293776Y-73272989D01*
X151303720Y-73342147D01*
X151274695Y-73405703D01*
X151215917Y-73443477D01*
X151205174Y-73446117D01*
X151188179Y-73449497D01*
X151188169Y-73449500D01*
X151139138Y-73469810D01*
X151069799Y-73498530D01*
X151069781Y-73498540D01*
X150963250Y-73569721D01*
X150963243Y-73569727D01*
X150219791Y-74313181D01*
X150158468Y-74346666D01*
X150132110Y-74349500D01*
X148035929Y-74349500D01*
X147910261Y-74374497D01*
X147910255Y-74374499D01*
X147791874Y-74423534D01*
X147685326Y-74494726D01*
X147685325Y-74494727D01*
X147087181Y-75092872D01*
X147025858Y-75126357D01*
X146956166Y-75121373D01*
X146900233Y-75079501D01*
X146875816Y-75014037D01*
X146875500Y-75005191D01*
X146875500Y-74655067D01*
X146894507Y-74589094D01*
X146950788Y-74499524D01*
X146959073Y-74475847D01*
X147010368Y-74329255D01*
X147016410Y-74275631D01*
X147030565Y-74150003D01*
X147030565Y-74149996D01*
X147010369Y-73970750D01*
X147010368Y-73970745D01*
X146950788Y-73800476D01*
X146911582Y-73738080D01*
X146854816Y-73647738D01*
X146727262Y-73520184D01*
X146692800Y-73498530D01*
X146574523Y-73424211D01*
X146404254Y-73364631D01*
X146404249Y-73364630D01*
X146225004Y-73344435D01*
X146224996Y-73344435D01*
X146045750Y-73364630D01*
X146045745Y-73364631D01*
X145875476Y-73424211D01*
X145722737Y-73520184D01*
X145595184Y-73647737D01*
X145499211Y-73800476D01*
X145439631Y-73970745D01*
X145439630Y-73970750D01*
X145419435Y-74149996D01*
X145419435Y-74150003D01*
X145439630Y-74329249D01*
X145439631Y-74329254D01*
X145499211Y-74499524D01*
X145555493Y-74589094D01*
X145574500Y-74655067D01*
X145574500Y-78098125D01*
X145554815Y-78165164D01*
X145538182Y-78185806D01*
X145427030Y-78296958D01*
X145375443Y-78380593D01*
X145323495Y-78427317D01*
X145254532Y-78438538D01*
X145226572Y-78431677D01*
X145157482Y-78405908D01*
X145157483Y-78405908D01*
X145097883Y-78399501D01*
X145097881Y-78399500D01*
X145097873Y-78399500D01*
X145097865Y-78399500D01*
X143699499Y-78399500D01*
X143632460Y-78379815D01*
X143586705Y-78327011D01*
X143575499Y-78275500D01*
X143575499Y-76877129D01*
X143575498Y-76877123D01*
X143569091Y-76817516D01*
X143518797Y-76682671D01*
X143518795Y-76682668D01*
X143475233Y-76624476D01*
X143450816Y-76559011D01*
X143450500Y-76550165D01*
X143450500Y-74874678D01*
X143470185Y-74807639D01*
X143486819Y-74786997D01*
X146705273Y-71568543D01*
X146705277Y-71568539D01*
X146776465Y-71461997D01*
X146825501Y-71343614D01*
X146850500Y-71217939D01*
X146850500Y-64949998D01*
X149694390Y-64949998D01*
X149694390Y-64950001D01*
X149714804Y-65235433D01*
X149775628Y-65515037D01*
X149875635Y-65783166D01*
X150012770Y-66034309D01*
X150012775Y-66034317D01*
X150184254Y-66263387D01*
X150184270Y-66263405D01*
X150386594Y-66465729D01*
X150386612Y-66465745D01*
X150615682Y-66637224D01*
X150615690Y-66637229D01*
X150866833Y-66774364D01*
X150866832Y-66774364D01*
X150866836Y-66774365D01*
X150866839Y-66774367D01*
X151134954Y-66874369D01*
X151134960Y-66874370D01*
X151134962Y-66874371D01*
X151414566Y-66935195D01*
X151414568Y-66935195D01*
X151414572Y-66935196D01*
X151668220Y-66953337D01*
X151699999Y-66955610D01*
X151700000Y-66955610D01*
X151700001Y-66955610D01*
X151728595Y-66953564D01*
X151985428Y-66935196D01*
X152265046Y-66874369D01*
X152533161Y-66774367D01*
X152784315Y-66637226D01*
X153013395Y-66465739D01*
X153215739Y-66263395D01*
X153387226Y-66034315D01*
X153524367Y-65783161D01*
X153624369Y-65515046D01*
X153685196Y-65235428D01*
X153705610Y-64950000D01*
X153685196Y-64664572D01*
X153624369Y-64384954D01*
X153524367Y-64116839D01*
X153444025Y-63969705D01*
X153387229Y-63865690D01*
X153387224Y-63865682D01*
X153215745Y-63636612D01*
X153215729Y-63636594D01*
X153013405Y-63434270D01*
X153013387Y-63434254D01*
X152784317Y-63262775D01*
X152784309Y-63262770D01*
X152533166Y-63125635D01*
X152533167Y-63125635D01*
X152425915Y-63085632D01*
X152265046Y-63025631D01*
X152265043Y-63025630D01*
X152265037Y-63025628D01*
X151985433Y-62964804D01*
X151700001Y-62944390D01*
X151699999Y-62944390D01*
X151414566Y-62964804D01*
X151134962Y-63025628D01*
X150866833Y-63125635D01*
X150615690Y-63262770D01*
X150615682Y-63262775D01*
X150386612Y-63434254D01*
X150386594Y-63434270D01*
X150184270Y-63636594D01*
X150184254Y-63636612D01*
X150012775Y-63865682D01*
X150012770Y-63865690D01*
X149875635Y-64116833D01*
X149775628Y-64384962D01*
X149714804Y-64664566D01*
X149694390Y-64949998D01*
X146850500Y-64949998D01*
X146850500Y-60635931D01*
X146850500Y-60635928D01*
X146825502Y-60510261D01*
X146825501Y-60510260D01*
X146825501Y-60510256D01*
X146796589Y-60440457D01*
X146796589Y-60440456D01*
X146776469Y-60391880D01*
X146776467Y-60391877D01*
X146776466Y-60391874D01*
X146705277Y-60285331D01*
X146705272Y-60285325D01*
X145164673Y-58744726D01*
X145164669Y-58744723D01*
X145058127Y-58673535D01*
X144939744Y-58624499D01*
X144939738Y-58624497D01*
X144814071Y-58599500D01*
X144814069Y-58599500D01*
X142660931Y-58599500D01*
X142660929Y-58599500D01*
X142535261Y-58624497D01*
X142535255Y-58624499D01*
X142416874Y-58673534D01*
X142310326Y-58744726D01*
X141775497Y-59279555D01*
X141714174Y-59313040D01*
X141649499Y-59309805D01*
X141566244Y-59282754D01*
X141566240Y-59282753D01*
X141404957Y-59257208D01*
X141356287Y-59249500D01*
X141143713Y-59249500D01*
X141095042Y-59257208D01*
X140933760Y-59282753D01*
X140731585Y-59348444D01*
X140542179Y-59444951D01*
X140370213Y-59569890D01*
X140219894Y-59720209D01*
X140219890Y-59720214D01*
X140100008Y-59885218D01*
X140044678Y-59927884D01*
X139975065Y-59933863D01*
X139913270Y-59901257D01*
X139899372Y-59885218D01*
X139779727Y-59720540D01*
X139779723Y-59720535D01*
X139629464Y-59570276D01*
X139629459Y-59570272D01*
X139457557Y-59445379D01*
X139268215Y-59348903D01*
X139066124Y-59283241D01*
X139000000Y-59272768D01*
X139000000Y-60320854D01*
X138933343Y-60282370D01*
X138812535Y-60250000D01*
X138687465Y-60250000D01*
X138566657Y-60282370D01*
X138500000Y-60320854D01*
X138500000Y-59272768D01*
X138499999Y-59272768D01*
X138433875Y-59283241D01*
X138231784Y-59348903D01*
X138042442Y-59445379D01*
X137870541Y-59570271D01*
X137731668Y-59709144D01*
X137670345Y-59742628D01*
X137600653Y-59737644D01*
X137544720Y-59695772D01*
X137538448Y-59686558D01*
X137442712Y-59531344D01*
X137318657Y-59407289D01*
X137318656Y-59407288D01*
X137169334Y-59315186D01*
X137002797Y-59260001D01*
X137002795Y-59260000D01*
X136900010Y-59249500D01*
X135599998Y-59249500D01*
X135599981Y-59249501D01*
X135497203Y-59260000D01*
X135497200Y-59260001D01*
X135330668Y-59315185D01*
X135330663Y-59315187D01*
X135181342Y-59407289D01*
X135057289Y-59531342D01*
X134965187Y-59680663D01*
X134965185Y-59680668D01*
X134960180Y-59695772D01*
X134910001Y-59847203D01*
X134910001Y-59847204D01*
X134910000Y-59847204D01*
X134899500Y-59949983D01*
X134899500Y-61500001D01*
X134899501Y-61500018D01*
X134910000Y-61602796D01*
X134910001Y-61602799D01*
X134944031Y-61705493D01*
X134965186Y-61769334D01*
X135057288Y-61918656D01*
X135181344Y-62042712D01*
X135330666Y-62134814D01*
X135414505Y-62162595D01*
X135471948Y-62202366D01*
X135498772Y-62266882D01*
X135499500Y-62280300D01*
X135499500Y-67169699D01*
X135479815Y-67236738D01*
X135427011Y-67282493D01*
X135414507Y-67287403D01*
X135381962Y-67298188D01*
X135330668Y-67315185D01*
X135330663Y-67315187D01*
X135181342Y-67407289D01*
X135057289Y-67531342D01*
X134965187Y-67680663D01*
X134965185Y-67680668D01*
X134960180Y-67695772D01*
X134910001Y-67847203D01*
X134910001Y-67847204D01*
X134910000Y-67847204D01*
X134899500Y-67949983D01*
X134899500Y-69500001D01*
X134899501Y-69500018D01*
X134910000Y-69602796D01*
X134910001Y-69602799D01*
X134951975Y-69729466D01*
X134965186Y-69769334D01*
X135057288Y-69918656D01*
X135181344Y-70042712D01*
X135330666Y-70134814D01*
X135497203Y-70189999D01*
X135599991Y-70200500D01*
X135837768Y-70200499D01*
X135904808Y-70220183D01*
X135925450Y-70236818D01*
X139613181Y-73924548D01*
X139646666Y-73985871D01*
X139649500Y-74012229D01*
X139649500Y-76485046D01*
X139629815Y-76552085D01*
X139577011Y-76597840D01*
X139507853Y-76607784D01*
X139444297Y-76578759D01*
X139437819Y-76572727D01*
X139432550Y-76567458D01*
X139432547Y-76567456D01*
X139432546Y-76567454D01*
X139399686Y-76542855D01*
X139357817Y-76486921D01*
X139350000Y-76443590D01*
X139350000Y-76425000D01*
X139277166Y-76425000D01*
X139215595Y-76431619D01*
X139189088Y-76431619D01*
X139174949Y-76430099D01*
X139122873Y-76424500D01*
X139122867Y-76424500D01*
X138774500Y-76424500D01*
X138707461Y-76404815D01*
X138661706Y-76352011D01*
X138650500Y-76300500D01*
X138650500Y-76196728D01*
X138658318Y-76153394D01*
X138694091Y-76057483D01*
X138700500Y-75997873D01*
X138700499Y-74002128D01*
X138694091Y-73942517D01*
X138643796Y-73807669D01*
X138643795Y-73807668D01*
X138643793Y-73807664D01*
X138557547Y-73692455D01*
X138557544Y-73692452D01*
X138442335Y-73606206D01*
X138442328Y-73606202D01*
X138307486Y-73555910D01*
X138307485Y-73555909D01*
X138307483Y-73555909D01*
X138247873Y-73549500D01*
X138247863Y-73549500D01*
X137752129Y-73549500D01*
X137752123Y-73549501D01*
X137692516Y-73555908D01*
X137557671Y-73606202D01*
X137557669Y-73606204D01*
X137473894Y-73668918D01*
X137408430Y-73693335D01*
X137340157Y-73678484D01*
X137325272Y-73668918D01*
X137242088Y-73606646D01*
X137242086Y-73606645D01*
X137107379Y-73556403D01*
X137107372Y-73556401D01*
X137047844Y-73550000D01*
X137000000Y-73550000D01*
X137000000Y-75076000D01*
X136980315Y-75143039D01*
X136927511Y-75188794D01*
X136876000Y-75200000D01*
X136724000Y-75200000D01*
X136656961Y-75180315D01*
X136611206Y-75127511D01*
X136600000Y-75076000D01*
X136600000Y-73550000D01*
X136552155Y-73550000D01*
X136492627Y-73556401D01*
X136492620Y-73556403D01*
X136357913Y-73606645D01*
X136357910Y-73606647D01*
X136274727Y-73668918D01*
X136209262Y-73693335D01*
X136140989Y-73678483D01*
X136126106Y-73668918D01*
X136042331Y-73606204D01*
X136042328Y-73606202D01*
X135907486Y-73555910D01*
X135907485Y-73555909D01*
X135907483Y-73555909D01*
X135847873Y-73549500D01*
X135847863Y-73549500D01*
X135352129Y-73549500D01*
X135352123Y-73549501D01*
X135292516Y-73555908D01*
X135157671Y-73606202D01*
X135157664Y-73606206D01*
X135042455Y-73692452D01*
X135042452Y-73692455D01*
X134956206Y-73807664D01*
X134956202Y-73807671D01*
X134905908Y-73942517D01*
X134899501Y-74002116D01*
X134899501Y-74002123D01*
X134899500Y-74002135D01*
X134899500Y-75997870D01*
X134899501Y-75997876D01*
X134905908Y-76057483D01*
X134941891Y-76153957D01*
X134949111Y-76185130D01*
X134949498Y-76189065D01*
X134973066Y-76307543D01*
X134974498Y-76314741D01*
X134974499Y-76314745D01*
X135023533Y-76433125D01*
X135094726Y-76539673D01*
X135094727Y-76539674D01*
X136388181Y-77833127D01*
X136421666Y-77894450D01*
X136424500Y-77920808D01*
X136424500Y-78275500D01*
X136404815Y-78342539D01*
X136352011Y-78388294D01*
X136300500Y-78399500D01*
X134902129Y-78399500D01*
X134902123Y-78399501D01*
X134842516Y-78405908D01*
X134707671Y-78456202D01*
X134707664Y-78456206D01*
X134592455Y-78542452D01*
X134592452Y-78542455D01*
X134506206Y-78657664D01*
X134506202Y-78657671D01*
X134455910Y-78792513D01*
X134455909Y-78792517D01*
X134449500Y-78852127D01*
X134449500Y-78852134D01*
X134449500Y-78852135D01*
X134449500Y-79497870D01*
X134449501Y-79497879D01*
X134456367Y-79561751D01*
X134456367Y-79588257D01*
X134455909Y-79592516D01*
X134455909Y-79592517D01*
X134449500Y-79652127D01*
X134449500Y-79652132D01*
X134449500Y-79652133D01*
X134449500Y-80297870D01*
X134449501Y-80297879D01*
X134456367Y-80361751D01*
X134456367Y-80388257D01*
X134455909Y-80392516D01*
X134455909Y-80392517D01*
X134449500Y-80452127D01*
X134449500Y-80452132D01*
X134449500Y-80452133D01*
X134449500Y-81097870D01*
X134449501Y-81097879D01*
X134456367Y-81161751D01*
X134456367Y-81188257D01*
X134455909Y-81192516D01*
X134455909Y-81192517D01*
X134449500Y-81252127D01*
X134449500Y-81252132D01*
X134449500Y-81779192D01*
X134429815Y-81846231D01*
X134413181Y-81866873D01*
X134216873Y-82063181D01*
X134155550Y-82096666D01*
X134129192Y-82099500D01*
X134122402Y-82099500D01*
X134055363Y-82079815D01*
X134009608Y-82027011D01*
X133999664Y-81957853D01*
X134016864Y-81910403D01*
X134062088Y-81837083D01*
X134062093Y-81837072D01*
X134114942Y-81677583D01*
X134124999Y-81579150D01*
X134125000Y-81579137D01*
X134125000Y-81525000D01*
X133061500Y-81525000D01*
X132994461Y-81505315D01*
X132948706Y-81452511D01*
X132937500Y-81401000D01*
X132937500Y-81025000D01*
X133437500Y-81025000D01*
X134124999Y-81025000D01*
X134124999Y-80970864D01*
X134124998Y-80970847D01*
X134114943Y-80872416D01*
X134062093Y-80712927D01*
X134062091Y-80712922D01*
X133973885Y-80569919D01*
X133855080Y-80451114D01*
X133712077Y-80362908D01*
X133712072Y-80362906D01*
X133552583Y-80310057D01*
X133454150Y-80300000D01*
X133437500Y-80300000D01*
X133437500Y-81025000D01*
X132937500Y-81025000D01*
X132937500Y-80299999D01*
X132920856Y-80300000D01*
X132822415Y-80310057D01*
X132662927Y-80362906D01*
X132662922Y-80362908D01*
X132519919Y-80451114D01*
X132488033Y-80483000D01*
X132426709Y-80516485D01*
X132357018Y-80511499D01*
X132312673Y-80483000D01*
X132280392Y-80450719D01*
X132280387Y-80450716D01*
X132137295Y-80362455D01*
X132137289Y-80362452D01*
X132137287Y-80362451D01*
X131977685Y-80309564D01*
X131977683Y-80309563D01*
X131879181Y-80299500D01*
X131879174Y-80299500D01*
X131345826Y-80299500D01*
X131345818Y-80299500D01*
X131247316Y-80309563D01*
X131247315Y-80309564D01*
X131226710Y-80316392D01*
X131087715Y-80362450D01*
X131087704Y-80362455D01*
X130944612Y-80450716D01*
X130944608Y-80450719D01*
X130825719Y-80569608D01*
X130825716Y-80569612D01*
X130737455Y-80712704D01*
X130737450Y-80712715D01*
X130737380Y-80712927D01*
X130684564Y-80872315D01*
X130684564Y-80872316D01*
X130684563Y-80872316D01*
X130674500Y-80970818D01*
X130674500Y-81579181D01*
X130684563Y-81677683D01*
X130737450Y-81837284D01*
X130737455Y-81837295D01*
X130800982Y-81940287D01*
X130819423Y-82007679D01*
X130801561Y-82069533D01*
X130731523Y-82185391D01*
X130680913Y-82347807D01*
X130674500Y-82418386D01*
X130674500Y-83081613D01*
X130680913Y-83152192D01*
X130680913Y-83152194D01*
X130680914Y-83152196D01*
X130731522Y-83314606D01*
X130810260Y-83444854D01*
X130819530Y-83460188D01*
X130939811Y-83580469D01*
X130939813Y-83580470D01*
X130939815Y-83580472D01*
X131085394Y-83668478D01*
X131247804Y-83719086D01*
X131318384Y-83725500D01*
X131318387Y-83725500D01*
X131831613Y-83725500D01*
X131831616Y-83725500D01*
X131902196Y-83719086D01*
X132064606Y-83668478D01*
X132210185Y-83580472D01*
X132241157Y-83549500D01*
X132312319Y-83478339D01*
X132373642Y-83444854D01*
X132443334Y-83449838D01*
X132487681Y-83478339D01*
X132589811Y-83580469D01*
X132589813Y-83580470D01*
X132589815Y-83580472D01*
X132735394Y-83668478D01*
X132897804Y-83719086D01*
X132968384Y-83725500D01*
X132968387Y-83725500D01*
X133383791Y-83725500D01*
X133450830Y-83745185D01*
X133496585Y-83797989D01*
X133507011Y-83863384D01*
X133494435Y-83974997D01*
X133494435Y-83975003D01*
X133514630Y-84154249D01*
X133514633Y-84154262D01*
X133576510Y-84331094D01*
X133574364Y-84331844D01*
X133583962Y-84390144D01*
X133575609Y-84418590D01*
X133576510Y-84418906D01*
X133514633Y-84595737D01*
X133514630Y-84595750D01*
X133494435Y-84774996D01*
X133494435Y-84775003D01*
X133514630Y-84954249D01*
X133514631Y-84954254D01*
X133574211Y-85124523D01*
X133603986Y-85171909D01*
X133670184Y-85277262D01*
X133797738Y-85404816D01*
X133860720Y-85444390D01*
X133946268Y-85498144D01*
X133950478Y-85500789D01*
X134074228Y-85544091D01*
X134120745Y-85560368D01*
X134120750Y-85560369D01*
X134299996Y-85580565D01*
X134300000Y-85580565D01*
X134300004Y-85580565D01*
X134479249Y-85560369D01*
X134479252Y-85560368D01*
X134479255Y-85560368D01*
X134479256Y-85560367D01*
X134479259Y-85560367D01*
X134525772Y-85544091D01*
X134646899Y-85501706D01*
X134716674Y-85498144D01*
X134731171Y-85502562D01*
X134842517Y-85544091D01*
X134902127Y-85550500D01*
X135554048Y-85550499D01*
X135621086Y-85570183D01*
X135666841Y-85622987D01*
X135676785Y-85692146D01*
X135659041Y-85740471D01*
X135574211Y-85875476D01*
X135514631Y-86045745D01*
X135514630Y-86045750D01*
X135494435Y-86224996D01*
X135494435Y-86225003D01*
X135514630Y-86404249D01*
X135514631Y-86404254D01*
X135574211Y-86574523D01*
X135670184Y-86727262D01*
X135797738Y-86854816D01*
X135950478Y-86950789D01*
X136120745Y-87010368D01*
X136120750Y-87010369D01*
X136226485Y-87022281D01*
X136275284Y-87027780D01*
X136339698Y-87054846D01*
X136379253Y-87112441D01*
X136381391Y-87182278D01*
X136345433Y-87242184D01*
X136282796Y-87273140D01*
X136261402Y-87275000D01*
X136176693Y-87275000D01*
X136176676Y-87275001D01*
X136077392Y-87285144D01*
X135916518Y-87338452D01*
X135916507Y-87338457D01*
X135772271Y-87427424D01*
X135772267Y-87427427D01*
X135652427Y-87547267D01*
X135652424Y-87547271D01*
X135563457Y-87691507D01*
X135563452Y-87691518D01*
X135510144Y-87852393D01*
X135500000Y-87951677D01*
X135500000Y-88000000D01*
X136576000Y-88000000D01*
X136643039Y-88019685D01*
X136688794Y-88072489D01*
X136700000Y-88124000D01*
X136700000Y-90774999D01*
X136723308Y-90774999D01*
X136723322Y-90774998D01*
X136822607Y-90764855D01*
X136983481Y-90711547D01*
X136983492Y-90711542D01*
X137127731Y-90622573D01*
X137136959Y-90613345D01*
X137198279Y-90579856D01*
X137267971Y-90584835D01*
X137312327Y-90613339D01*
X137321955Y-90622967D01*
X137321959Y-90622970D01*
X137466294Y-90711998D01*
X137466297Y-90711999D01*
X137466303Y-90712003D01*
X137578983Y-90749341D01*
X137633719Y-90767479D01*
X137633334Y-90768637D01*
X137688681Y-90798620D01*
X137722371Y-90859831D01*
X137724583Y-90899846D01*
X137719501Y-90947125D01*
X137719500Y-90947130D01*
X137719500Y-92822870D01*
X137719501Y-92822876D01*
X137725908Y-92882483D01*
X137770816Y-93002885D01*
X137775800Y-93072576D01*
X137773295Y-93082212D01*
X137743975Y-93178868D01*
X137724659Y-93375000D01*
X137743975Y-93571129D01*
X137743976Y-93571132D01*
X137789362Y-93720750D01*
X137801188Y-93759733D01*
X137894086Y-93933532D01*
X137894090Y-93933539D01*
X138019116Y-94085883D01*
X138171460Y-94210909D01*
X138171467Y-94210913D01*
X138345266Y-94303811D01*
X138345269Y-94303811D01*
X138345273Y-94303814D01*
X138533868Y-94361024D01*
X138730000Y-94380341D01*
X138926132Y-94361024D01*
X139114727Y-94303814D01*
X139288538Y-94210910D01*
X139440883Y-94085883D01*
X139565910Y-93933538D01*
X139658814Y-93759727D01*
X139716024Y-93571132D01*
X139735341Y-93375000D01*
X139716024Y-93178868D01*
X139686704Y-93082212D01*
X139686081Y-93012348D01*
X139689175Y-93002907D01*
X139734091Y-92882483D01*
X139740500Y-92822873D01*
X139740499Y-90947128D01*
X139734116Y-90887752D01*
X139746522Y-90818995D01*
X139794133Y-90767858D01*
X139857406Y-90750500D01*
X141673920Y-90750500D01*
X141774136Y-90730565D01*
X141818913Y-90721658D01*
X141955495Y-90665084D01*
X142018526Y-90622968D01*
X142078416Y-90582952D01*
X145211368Y-87449998D01*
X149694390Y-87449998D01*
X149694390Y-87450001D01*
X149714804Y-87735433D01*
X149775628Y-88015037D01*
X149775630Y-88015043D01*
X149775631Y-88015046D01*
X149797056Y-88072489D01*
X149875635Y-88283166D01*
X150012770Y-88534309D01*
X150012775Y-88534317D01*
X150184254Y-88763387D01*
X150184270Y-88763405D01*
X150386594Y-88965729D01*
X150386612Y-88965745D01*
X150615682Y-89137224D01*
X150615690Y-89137229D01*
X150866833Y-89274364D01*
X150866832Y-89274364D01*
X150866836Y-89274365D01*
X150866839Y-89274367D01*
X151134954Y-89374369D01*
X151134960Y-89374370D01*
X151134962Y-89374371D01*
X151414566Y-89435195D01*
X151414568Y-89435195D01*
X151414572Y-89435196D01*
X151668220Y-89453337D01*
X151699999Y-89455610D01*
X151700000Y-89455610D01*
X151700001Y-89455610D01*
X151728595Y-89453564D01*
X151985428Y-89435196D01*
X152042702Y-89422737D01*
X152265037Y-89374371D01*
X152265037Y-89374370D01*
X152265046Y-89374369D01*
X152533161Y-89274367D01*
X152784315Y-89137226D01*
X153013395Y-88965739D01*
X153215739Y-88763395D01*
X153387226Y-88534315D01*
X153524367Y-88283161D01*
X153624369Y-88015046D01*
X153685196Y-87735428D01*
X153705610Y-87450000D01*
X153685196Y-87164572D01*
X153678215Y-87132483D01*
X153624371Y-86884962D01*
X153624370Y-86884960D01*
X153624369Y-86884954D01*
X153524367Y-86616839D01*
X153491794Y-86557187D01*
X153387229Y-86365690D01*
X153387224Y-86365682D01*
X153215745Y-86136612D01*
X153215729Y-86136594D01*
X153013405Y-85934270D01*
X153013387Y-85934254D01*
X152784317Y-85762775D01*
X152784309Y-85762770D01*
X152533166Y-85625635D01*
X152533167Y-85625635D01*
X152384494Y-85570183D01*
X152265046Y-85525631D01*
X152265043Y-85525630D01*
X152265037Y-85525628D01*
X151985433Y-85464804D01*
X151700001Y-85444390D01*
X151699999Y-85444390D01*
X151414566Y-85464804D01*
X151134962Y-85525628D01*
X150866833Y-85625635D01*
X150615690Y-85762770D01*
X150615682Y-85762775D01*
X150386612Y-85934254D01*
X150386594Y-85934270D01*
X150184270Y-86136594D01*
X150184254Y-86136612D01*
X150012775Y-86365682D01*
X150012770Y-86365690D01*
X149875635Y-86616833D01*
X149775628Y-86884962D01*
X149714804Y-87164566D01*
X149694390Y-87449998D01*
X145211368Y-87449998D01*
X145949548Y-86711818D01*
X146010871Y-86678334D01*
X146037229Y-86675500D01*
X146723700Y-86675500D01*
X146821242Y-86656096D01*
X146868693Y-86646658D01*
X147005275Y-86590084D01*
X147054509Y-86557186D01*
X147128196Y-86507952D01*
X147624328Y-86011818D01*
X147685651Y-85978334D01*
X147712009Y-85975500D01*
X148081613Y-85975500D01*
X148081616Y-85975500D01*
X148152196Y-85969086D01*
X148314606Y-85918478D01*
X148460185Y-85830472D01*
X148580472Y-85710185D01*
X148668478Y-85564606D01*
X148719086Y-85402196D01*
X148725500Y-85331616D01*
X148725500Y-84668384D01*
X148719086Y-84597804D01*
X148668478Y-84435394D01*
X148595180Y-84314146D01*
X148577346Y-84246596D01*
X148595180Y-84185854D01*
X148668478Y-84064606D01*
X148719086Y-83902196D01*
X148725500Y-83831616D01*
X148725500Y-83168384D01*
X148719086Y-83097804D01*
X148678155Y-82966452D01*
X148677006Y-82896594D01*
X148713807Y-82837202D01*
X148776876Y-82807134D01*
X148796542Y-82805565D01*
X148800004Y-82805565D01*
X148979249Y-82785369D01*
X148979252Y-82785368D01*
X148979255Y-82785368D01*
X149149522Y-82725789D01*
X149302262Y-82629816D01*
X149429816Y-82502262D01*
X149525789Y-82349522D01*
X149585368Y-82179255D01*
X149585369Y-82179249D01*
X149605565Y-82000003D01*
X149605565Y-81999996D01*
X149585369Y-81820750D01*
X149585368Y-81820745D01*
X149581658Y-81810142D01*
X149525789Y-81650478D01*
X149429816Y-81497738D01*
X149302262Y-81370184D01*
X149149523Y-81274211D01*
X148979254Y-81214631D01*
X148979249Y-81214630D01*
X148800004Y-81194435D01*
X148793036Y-81194435D01*
X148793036Y-81192664D01*
X148733091Y-81182164D01*
X148681712Y-81134815D01*
X148664088Y-81067204D01*
X148670324Y-81031995D01*
X148714855Y-80897606D01*
X148724999Y-80798322D01*
X148725000Y-80798309D01*
X148725000Y-80750000D01*
X147649000Y-80750000D01*
X147581961Y-80730315D01*
X147536206Y-80677511D01*
X147525000Y-80626000D01*
X147525000Y-80374000D01*
X147544685Y-80306961D01*
X147597489Y-80261206D01*
X147649000Y-80250000D01*
X148724999Y-80250000D01*
X148724999Y-80201692D01*
X148724998Y-80201677D01*
X148714855Y-80102392D01*
X148661547Y-79941518D01*
X148661542Y-79941507D01*
X148583864Y-79815573D01*
X148565423Y-79748181D01*
X148583863Y-79685379D01*
X148662003Y-79558697D01*
X148715349Y-79397708D01*
X148725500Y-79298345D01*
X148725499Y-78701656D01*
X148715349Y-78602292D01*
X148662003Y-78441303D01*
X148661999Y-78441297D01*
X148661998Y-78441294D01*
X148572970Y-78296959D01*
X148572967Y-78296955D01*
X148535659Y-78259647D01*
X148502174Y-78198324D01*
X148507158Y-78128632D01*
X148535656Y-78084288D01*
X149133127Y-77486819D01*
X149194450Y-77453334D01*
X149220808Y-77450500D01*
X150610844Y-77450500D01*
X150677883Y-77470185D01*
X150723638Y-77522989D01*
X150734247Y-77562347D01*
X150743975Y-77661128D01*
X150743975Y-77661130D01*
X150743976Y-77661132D01*
X150801130Y-77849541D01*
X150801188Y-77849733D01*
X150894086Y-78023532D01*
X150894090Y-78023539D01*
X151019116Y-78175883D01*
X151171460Y-78300909D01*
X151171467Y-78300913D01*
X151345266Y-78393811D01*
X151345269Y-78393811D01*
X151345273Y-78393814D01*
X151533868Y-78451024D01*
X151730000Y-78470341D01*
X151926132Y-78451024D01*
X152114727Y-78393814D01*
X152288538Y-78300910D01*
X152288544Y-78300904D01*
X152293607Y-78297523D01*
X152294624Y-78299045D01*
X152351021Y-78275084D01*
X152419890Y-78286866D01*
X152436424Y-78297489D01*
X152436678Y-78297110D01*
X152441738Y-78300491D01*
X152615465Y-78393349D01*
X152750000Y-78434159D01*
X153250000Y-78434159D01*
X153384534Y-78393349D01*
X153558260Y-78300491D01*
X153710528Y-78175528D01*
X153835492Y-78023260D01*
X153835496Y-78023253D01*
X153928347Y-77849541D01*
X153969160Y-77715000D01*
X153250000Y-77715000D01*
X153250000Y-78434159D01*
X152750000Y-78434159D01*
X152750000Y-77339000D01*
X152769685Y-77271961D01*
X152822489Y-77226206D01*
X152874000Y-77215000D01*
X153969160Y-77215000D01*
X153969160Y-77214999D01*
X153959034Y-77181617D01*
X153958410Y-77111750D01*
X153995657Y-77052637D01*
X154041707Y-77026958D01*
X154046499Y-77025503D01*
X154046513Y-77025501D01*
X154164896Y-76976465D01*
X154183448Y-76964069D01*
X154271438Y-76905277D01*
X154637819Y-76538896D01*
X154699142Y-76505411D01*
X154768833Y-76510395D01*
X154824767Y-76552266D01*
X154849184Y-76617731D01*
X154849500Y-76626577D01*
X154849500Y-79075500D01*
X154829815Y-79142539D01*
X154777011Y-79188294D01*
X154725500Y-79199500D01*
X150834108Y-79199500D01*
X150706812Y-79233608D01*
X150592686Y-79299500D01*
X150592683Y-79299502D01*
X150499502Y-79392683D01*
X150499500Y-79392686D01*
X150433608Y-79506812D01*
X150410644Y-79592517D01*
X150399500Y-79634108D01*
X150399500Y-83734108D01*
X150399500Y-83865892D01*
X150409228Y-83902196D01*
X150433608Y-83993187D01*
X150446717Y-84015892D01*
X150499500Y-84107314D01*
X150592686Y-84200500D01*
X150706814Y-84266392D01*
X150834108Y-84300500D01*
X154725500Y-84300500D01*
X154792539Y-84320185D01*
X154838294Y-84372989D01*
X154849500Y-84424500D01*
X154849500Y-90475500D01*
X154829815Y-90542539D01*
X154777011Y-90588294D01*
X154725500Y-90599500D01*
X150834108Y-90599500D01*
X150706812Y-90633608D01*
X150592686Y-90699500D01*
X150592683Y-90699502D01*
X150499502Y-90792683D01*
X150499500Y-90792686D01*
X150433608Y-90906812D01*
X150399500Y-91034108D01*
X150399500Y-95275500D01*
X150379815Y-95342539D01*
X150327011Y-95388294D01*
X150275500Y-95399500D01*
X145419808Y-95399500D01*
X145352769Y-95379815D01*
X145307014Y-95327011D01*
X145297070Y-95257853D01*
X145326095Y-95194297D01*
X145332127Y-95187819D01*
X145427426Y-95092519D01*
X145798224Y-94721720D01*
X145859545Y-94688237D01*
X145872019Y-94686183D01*
X145879255Y-94685368D01*
X146049522Y-94625789D01*
X146202262Y-94529816D01*
X146329816Y-94402262D01*
X146425789Y-94249522D01*
X146485368Y-94079255D01*
X146485369Y-94079249D01*
X146505565Y-93900003D01*
X146505565Y-93899996D01*
X146485369Y-93720750D01*
X146485368Y-93720745D01*
X146425788Y-93550475D01*
X146381957Y-93480720D01*
X146341272Y-93415970D01*
X146322272Y-93348736D01*
X146341272Y-93284029D01*
X146425789Y-93149522D01*
X146485368Y-92979255D01*
X146491041Y-92928904D01*
X146505565Y-92800003D01*
X146505565Y-92799996D01*
X146485369Y-92620750D01*
X146485368Y-92620745D01*
X146425788Y-92450476D01*
X146329815Y-92297737D01*
X146202262Y-92170184D01*
X146049521Y-92074210D01*
X145879255Y-92014632D01*
X145879246Y-92014630D01*
X145872012Y-92013815D01*
X145807600Y-91986744D01*
X145798223Y-91978277D01*
X145199674Y-91379727D01*
X145199673Y-91379726D01*
X145199669Y-91379723D01*
X145093127Y-91308535D01*
X145056071Y-91293186D01*
X144974744Y-91259499D01*
X144974738Y-91259497D01*
X144920307Y-91248670D01*
X144858396Y-91216285D01*
X144823822Y-91155569D01*
X144820499Y-91127053D01*
X144820499Y-90947129D01*
X144820499Y-90947127D01*
X144815299Y-90898757D01*
X144814091Y-90887516D01*
X144763797Y-90752671D01*
X144763793Y-90752664D01*
X144677547Y-90637455D01*
X144677544Y-90637452D01*
X144562335Y-90551206D01*
X144562328Y-90551202D01*
X144427482Y-90500908D01*
X144427483Y-90500908D01*
X144367883Y-90494501D01*
X144367881Y-90494500D01*
X144367873Y-90494500D01*
X144367864Y-90494500D01*
X143252129Y-90494500D01*
X143252123Y-90494501D01*
X143192516Y-90500908D01*
X143057671Y-90551202D01*
X143057664Y-90551206D01*
X142942455Y-90637452D01*
X142942452Y-90637455D01*
X142856206Y-90752664D01*
X142856202Y-90752671D01*
X142805908Y-90887517D01*
X142804583Y-90899846D01*
X142799501Y-90947125D01*
X142799500Y-90947135D01*
X142799500Y-92822870D01*
X142799501Y-92822876D01*
X142805908Y-92882483D01*
X142850816Y-93002885D01*
X142855800Y-93072576D01*
X142853295Y-93082212D01*
X142823975Y-93178868D01*
X142804659Y-93375000D01*
X142823975Y-93571129D01*
X142823976Y-93571132D01*
X142869362Y-93720750D01*
X142881188Y-93759733D01*
X142974086Y-93933532D01*
X142974090Y-93933539D01*
X143038347Y-94011835D01*
X143065660Y-94076145D01*
X143053869Y-94145012D01*
X143006717Y-94196572D01*
X142942494Y-94214500D01*
X142404499Y-94214500D01*
X142337460Y-94194815D01*
X142291705Y-94142011D01*
X142280499Y-94090500D01*
X142280499Y-93927129D01*
X142280498Y-93927123D01*
X142280497Y-93927116D01*
X142274103Y-93867627D01*
X142274091Y-93867516D01*
X142229183Y-93747111D01*
X142224199Y-93677419D01*
X142226705Y-93667782D01*
X142256024Y-93571132D01*
X142275341Y-93375000D01*
X142256024Y-93178868D01*
X142198814Y-92990273D01*
X142198811Y-92990269D01*
X142198811Y-92990266D01*
X142105913Y-92816467D01*
X142105909Y-92816460D01*
X141980883Y-92664116D01*
X141828539Y-92539090D01*
X141828532Y-92539086D01*
X141654733Y-92446188D01*
X141654727Y-92446186D01*
X141466132Y-92388976D01*
X141466129Y-92388975D01*
X141270000Y-92369659D01*
X141073870Y-92388975D01*
X140885266Y-92446188D01*
X140711467Y-92539086D01*
X140711460Y-92539090D01*
X140559116Y-92664116D01*
X140434090Y-92816460D01*
X140434086Y-92816467D01*
X140341188Y-92990266D01*
X140283975Y-93178870D01*
X140264659Y-93375000D01*
X140283976Y-93571132D01*
X140313295Y-93667787D01*
X140313918Y-93737654D01*
X140310816Y-93747114D01*
X140265908Y-93867517D01*
X140262416Y-93900003D01*
X140259500Y-93927127D01*
X140259500Y-94625789D01*
X140259501Y-95275500D01*
X140239816Y-95342539D01*
X140187013Y-95388294D01*
X140135501Y-95399500D01*
X137324000Y-95399500D01*
X137256961Y-95379815D01*
X137211206Y-95327011D01*
X137200000Y-95275500D01*
X137200000Y-95115000D01*
X135180000Y-95115000D01*
X135180000Y-95275500D01*
X135160315Y-95342539D01*
X135107511Y-95388294D01*
X135056000Y-95399500D01*
X120624500Y-95399500D01*
X120557461Y-95379815D01*
X120511706Y-95327011D01*
X120500500Y-95275500D01*
X120500500Y-93927155D01*
X135180000Y-93927155D01*
X135180000Y-94615000D01*
X137200000Y-94615000D01*
X137200000Y-93927172D01*
X137199999Y-93927155D01*
X137193598Y-93867627D01*
X137193597Y-93867623D01*
X137148943Y-93747900D01*
X137143959Y-93678208D01*
X137146455Y-93668606D01*
X137176024Y-93571132D01*
X137195341Y-93375000D01*
X137176024Y-93178868D01*
X137118814Y-92990273D01*
X137118811Y-92990269D01*
X137118811Y-92990266D01*
X137025913Y-92816467D01*
X137025909Y-92816460D01*
X136900883Y-92664116D01*
X136748539Y-92539090D01*
X136748532Y-92539086D01*
X136574733Y-92446188D01*
X136574727Y-92446186D01*
X136386132Y-92388976D01*
X136386129Y-92388975D01*
X136190000Y-92369659D01*
X135993870Y-92388975D01*
X135805266Y-92446188D01*
X135631467Y-92539086D01*
X135631460Y-92539090D01*
X135479116Y-92664116D01*
X135354090Y-92816460D01*
X135354086Y-92816467D01*
X135261188Y-92990266D01*
X135203975Y-93178870D01*
X135184659Y-93375000D01*
X135203976Y-93571132D01*
X135233534Y-93668575D01*
X135234157Y-93738442D01*
X135231055Y-93747902D01*
X135186403Y-93867620D01*
X135186401Y-93867627D01*
X135180000Y-93927155D01*
X120500500Y-93927155D01*
X120500500Y-89924996D01*
X123494435Y-89924996D01*
X123494435Y-89925003D01*
X123514630Y-90104249D01*
X123514631Y-90104254D01*
X123574211Y-90274523D01*
X123670184Y-90427262D01*
X123797738Y-90554816D01*
X123837589Y-90579856D01*
X123923134Y-90633608D01*
X123950478Y-90650789D01*
X124089686Y-90699500D01*
X124120745Y-90710368D01*
X124120750Y-90710369D01*
X124299996Y-90730565D01*
X124300000Y-90730565D01*
X124300004Y-90730565D01*
X124479249Y-90710369D01*
X124479251Y-90710368D01*
X124479255Y-90710368D01*
X124479258Y-90710366D01*
X124479262Y-90710366D01*
X124569377Y-90678832D01*
X124649522Y-90650789D01*
X124739096Y-90594505D01*
X124805068Y-90575500D01*
X131194932Y-90575500D01*
X131260904Y-90594506D01*
X131350477Y-90650789D01*
X131350481Y-90650790D01*
X131520737Y-90710366D01*
X131520743Y-90710367D01*
X131520745Y-90710368D01*
X131520746Y-90710368D01*
X131520750Y-90710369D01*
X131699996Y-90730565D01*
X131700000Y-90730565D01*
X131700004Y-90730565D01*
X131879249Y-90710369D01*
X131879252Y-90710368D01*
X131879255Y-90710368D01*
X132049522Y-90650789D01*
X132202262Y-90554816D01*
X132329816Y-90427262D01*
X132425789Y-90274522D01*
X132485368Y-90104255D01*
X132486034Y-90098344D01*
X132486036Y-90098322D01*
X135500001Y-90098322D01*
X135510144Y-90197607D01*
X135563452Y-90358481D01*
X135563457Y-90358492D01*
X135652424Y-90502728D01*
X135652427Y-90502732D01*
X135772267Y-90622572D01*
X135772271Y-90622575D01*
X135916507Y-90711542D01*
X135916518Y-90711547D01*
X136077393Y-90764855D01*
X136176683Y-90774999D01*
X136200000Y-90774998D01*
X136200000Y-90050000D01*
X135500001Y-90050000D01*
X135500001Y-90098322D01*
X132486036Y-90098322D01*
X132505565Y-89925003D01*
X132505565Y-89924996D01*
X132485369Y-89745750D01*
X132485368Y-89745745D01*
X132425788Y-89575476D01*
X132379417Y-89501677D01*
X135500000Y-89501677D01*
X135500000Y-89550000D01*
X136200000Y-89550000D01*
X136200000Y-88500000D01*
X135500001Y-88500000D01*
X135500001Y-88548322D01*
X135510144Y-88647607D01*
X135563452Y-88808481D01*
X135563457Y-88808492D01*
X135656218Y-88958879D01*
X135653736Y-88960409D01*
X135674901Y-89012937D01*
X135661832Y-89081573D01*
X135655844Y-89090890D01*
X135656218Y-89091121D01*
X135563457Y-89241507D01*
X135563452Y-89241518D01*
X135510144Y-89402393D01*
X135500000Y-89501677D01*
X132379417Y-89501677D01*
X132329815Y-89422737D01*
X132202262Y-89295184D01*
X132049523Y-89199211D01*
X131879254Y-89139631D01*
X131879249Y-89139630D01*
X131700004Y-89119435D01*
X131699996Y-89119435D01*
X131520750Y-89139630D01*
X131520737Y-89139633D01*
X131350481Y-89199209D01*
X131350477Y-89199210D01*
X131260904Y-89255494D01*
X131194932Y-89274500D01*
X124805068Y-89274500D01*
X124739096Y-89255494D01*
X124649522Y-89199210D01*
X124649518Y-89199209D01*
X124479262Y-89139633D01*
X124479249Y-89139630D01*
X124300004Y-89119435D01*
X124299996Y-89119435D01*
X124120750Y-89139630D01*
X124120745Y-89139631D01*
X123950476Y-89199211D01*
X123797737Y-89295184D01*
X123670184Y-89422737D01*
X123574211Y-89575476D01*
X123514631Y-89745745D01*
X123514630Y-89745750D01*
X123494435Y-89924996D01*
X120500500Y-89924996D01*
X120500500Y-84574500D01*
X120520185Y-84507461D01*
X120572989Y-84461706D01*
X120624500Y-84450500D01*
X128565890Y-84450500D01*
X128565892Y-84450500D01*
X128693186Y-84416392D01*
X128807314Y-84350500D01*
X128900500Y-84257314D01*
X128966392Y-84143186D01*
X129000500Y-84015892D01*
X129000500Y-79784108D01*
X128966392Y-79656814D01*
X128963689Y-79652133D01*
X128926810Y-79588257D01*
X128900500Y-79542686D01*
X128807314Y-79449500D01*
X128708910Y-79392686D01*
X128693187Y-79383608D01*
X128629539Y-79366554D01*
X128565892Y-79349500D01*
X128565891Y-79349500D01*
X124674500Y-79349500D01*
X124607461Y-79329815D01*
X124561706Y-79277011D01*
X124550500Y-79225500D01*
X124550500Y-76199998D01*
X125694390Y-76199998D01*
X125694390Y-76200001D01*
X125714804Y-76485433D01*
X125775628Y-76765037D01*
X125775630Y-76765043D01*
X125775631Y-76765046D01*
X125874847Y-77031054D01*
X125875635Y-77033166D01*
X126012770Y-77284309D01*
X126012775Y-77284317D01*
X126184254Y-77513387D01*
X126184270Y-77513405D01*
X126386594Y-77715729D01*
X126386612Y-77715745D01*
X126615682Y-77887224D01*
X126615690Y-77887229D01*
X126866833Y-78024364D01*
X126866832Y-78024364D01*
X126866836Y-78024365D01*
X126866839Y-78024367D01*
X127134954Y-78124369D01*
X127134960Y-78124370D01*
X127134962Y-78124371D01*
X127414566Y-78185195D01*
X127414568Y-78185195D01*
X127414572Y-78185196D01*
X127668220Y-78203337D01*
X127699999Y-78205610D01*
X127700000Y-78205610D01*
X127700001Y-78205610D01*
X127728595Y-78203564D01*
X127985428Y-78185196D01*
X128022958Y-78177032D01*
X128265037Y-78124371D01*
X128265037Y-78124370D01*
X128265046Y-78124369D01*
X128533161Y-78024367D01*
X128784315Y-77887226D01*
X129013395Y-77715739D01*
X129215739Y-77513395D01*
X129387226Y-77284315D01*
X129524367Y-77033161D01*
X129624369Y-76765046D01*
X129685196Y-76485428D01*
X129705610Y-76200000D01*
X129704546Y-76185130D01*
X129691154Y-75997876D01*
X129685196Y-75914572D01*
X129624369Y-75634954D01*
X129524367Y-75366839D01*
X129444025Y-75219705D01*
X129387229Y-75115690D01*
X129387224Y-75115682D01*
X129215745Y-74886612D01*
X129215729Y-74886594D01*
X129013405Y-74684270D01*
X129013387Y-74684254D01*
X128784317Y-74512775D01*
X128784309Y-74512770D01*
X128533166Y-74375635D01*
X128533167Y-74375635D01*
X128337478Y-74302647D01*
X128265046Y-74275631D01*
X128265043Y-74275630D01*
X128265037Y-74275628D01*
X127985433Y-74214804D01*
X127700001Y-74194390D01*
X127699999Y-74194390D01*
X127414566Y-74214804D01*
X127134962Y-74275628D01*
X126866833Y-74375635D01*
X126615690Y-74512770D01*
X126615682Y-74512775D01*
X126386612Y-74684254D01*
X126386594Y-74684270D01*
X126184270Y-74886594D01*
X126184254Y-74886612D01*
X126012775Y-75115682D01*
X126012770Y-75115690D01*
X125875635Y-75366833D01*
X125775628Y-75634962D01*
X125714804Y-75914566D01*
X125694390Y-76199998D01*
X124550500Y-76199998D01*
X124550500Y-73174500D01*
X124570185Y-73107461D01*
X124622989Y-73061706D01*
X124674500Y-73050500D01*
X128565890Y-73050500D01*
X128565892Y-73050500D01*
X128693186Y-73016392D01*
X128807314Y-72950500D01*
X128900500Y-72857314D01*
X128966392Y-72743186D01*
X129000500Y-72615892D01*
X129000500Y-68384108D01*
X128966392Y-68256814D01*
X128900500Y-68142686D01*
X128807314Y-68049500D01*
X128750250Y-68016554D01*
X128693187Y-67983608D01*
X128629539Y-67966554D01*
X128565892Y-67949500D01*
X128565891Y-67949500D01*
X120624500Y-67949500D01*
X120557461Y-67929815D01*
X120511706Y-67877011D01*
X120500500Y-67825500D01*
X120500500Y-57124500D01*
X120520185Y-57057461D01*
X120572989Y-57011706D01*
X120624500Y-57000500D01*
X150275500Y-57000500D01*
X150342539Y-57020185D01*
G37*
%TD.AperFunction*%
%TA.AperFunction,Conductor*%
G36*
X141355703Y-78871242D02*
G01*
X141362181Y-78877274D01*
X141367452Y-78882545D01*
X141400309Y-78907141D01*
X141442181Y-78963074D01*
X141450000Y-79006409D01*
X141450000Y-79025000D01*
X141522828Y-79025000D01*
X141522839Y-79024999D01*
X141584395Y-79018380D01*
X141610909Y-79018380D01*
X141617514Y-79019090D01*
X141617517Y-79019091D01*
X141677127Y-79025500D01*
X142322872Y-79025499D01*
X142382483Y-79019091D01*
X142382486Y-79019089D01*
X142386744Y-79018632D01*
X142413252Y-79018632D01*
X142417514Y-79019090D01*
X142417517Y-79019091D01*
X142453873Y-79022999D01*
X142518420Y-79049735D01*
X142558270Y-79107127D01*
X142560765Y-79176952D01*
X142525114Y-79237041D01*
X142481574Y-79263328D01*
X142450481Y-79274208D01*
X142297737Y-79370184D01*
X142170184Y-79497737D01*
X142074211Y-79650476D01*
X142014631Y-79820745D01*
X142014630Y-79820750D01*
X141994435Y-79999996D01*
X141994435Y-80000003D01*
X142014630Y-80179249D01*
X142014633Y-80179262D01*
X142076510Y-80356094D01*
X142074364Y-80356844D01*
X142083962Y-80415144D01*
X142075609Y-80443590D01*
X142076510Y-80443906D01*
X142014633Y-80620737D01*
X142014630Y-80620750D01*
X141994435Y-80799996D01*
X141994435Y-80800003D01*
X142014630Y-80979249D01*
X142014631Y-80979254D01*
X142074211Y-81149523D01*
X142115122Y-81214632D01*
X142170184Y-81302262D01*
X142297738Y-81429816D01*
X142333857Y-81452511D01*
X142405833Y-81497737D01*
X142450478Y-81525789D01*
X142602938Y-81579137D01*
X142620745Y-81585368D01*
X142620750Y-81585369D01*
X142799996Y-81605565D01*
X142799998Y-81605565D01*
X142799998Y-81605564D01*
X142800000Y-81605565D01*
X142811614Y-81604256D01*
X142880435Y-81616309D01*
X142931816Y-81663657D01*
X142949500Y-81727476D01*
X142949500Y-81743862D01*
X142929815Y-81810901D01*
X142894392Y-81846963D01*
X142860332Y-81869721D01*
X142860326Y-81869726D01*
X141494724Y-83235328D01*
X141441753Y-83314607D01*
X141423535Y-83341872D01*
X141374499Y-83460255D01*
X141374497Y-83460261D01*
X141349500Y-83585928D01*
X141349500Y-84294931D01*
X141330494Y-84360903D01*
X141274211Y-84450477D01*
X141274209Y-84450481D01*
X141214633Y-84620737D01*
X141214630Y-84620750D01*
X141194435Y-84799996D01*
X141194435Y-84800500D01*
X141194342Y-84800813D01*
X141193655Y-84806919D01*
X141192585Y-84806798D01*
X141174750Y-84867539D01*
X141121946Y-84913294D01*
X141070436Y-84924500D01*
X140877130Y-84924500D01*
X140877125Y-84924501D01*
X140829160Y-84929657D01*
X140817517Y-84930909D01*
X140817516Y-84930909D01*
X140810904Y-84931620D01*
X140784393Y-84931619D01*
X140722842Y-84925000D01*
X140650000Y-84925000D01*
X140650000Y-84943590D01*
X140630315Y-85010629D01*
X140600313Y-85042856D01*
X140567451Y-85067456D01*
X140499266Y-85158540D01*
X140443332Y-85200411D01*
X140373641Y-85205395D01*
X140312318Y-85171909D01*
X140300734Y-85158540D01*
X140232548Y-85067456D01*
X140232546Y-85067455D01*
X140232546Y-85067454D01*
X140199686Y-85042855D01*
X140157817Y-84986921D01*
X140150000Y-84943590D01*
X140150000Y-84925000D01*
X140077166Y-84925000D01*
X140015595Y-84931619D01*
X139989088Y-84931619D01*
X139979818Y-84930622D01*
X139922873Y-84924500D01*
X139922865Y-84924500D01*
X139277129Y-84924500D01*
X139277120Y-84924501D01*
X139213248Y-84931367D01*
X139186742Y-84931367D01*
X139182483Y-84930909D01*
X139122873Y-84924500D01*
X139122867Y-84924500D01*
X138936229Y-84924500D01*
X138869190Y-84904815D01*
X138823435Y-84852011D01*
X138813491Y-84782853D01*
X138842516Y-84719297D01*
X138848548Y-84712819D01*
X140982950Y-82578417D01*
X140982952Y-82578415D01*
X141033835Y-82502262D01*
X141065084Y-82455495D01*
X141088518Y-82398920D01*
X141121659Y-82318912D01*
X141147352Y-82189744D01*
X141150500Y-82173918D01*
X141150500Y-79326082D01*
X141150500Y-78964955D01*
X141170185Y-78897916D01*
X141222989Y-78852161D01*
X141292147Y-78842217D01*
X141355703Y-78871242D01*
G37*
%TD.AperFunction*%
%TA.AperFunction,Conductor*%
G36*
X139000000Y-70177230D02*
G01*
X139066126Y-70166757D01*
X139066129Y-70166757D01*
X139268217Y-70101095D01*
X139457557Y-70004620D01*
X139629459Y-69879727D01*
X139629464Y-69879723D01*
X139779721Y-69729466D01*
X139899371Y-69564781D01*
X139954701Y-69522115D01*
X140024314Y-69516136D01*
X140086110Y-69548741D01*
X140100008Y-69564781D01*
X140219890Y-69729785D01*
X140219894Y-69729790D01*
X140370213Y-69880109D01*
X140542179Y-70005048D01*
X140542181Y-70005049D01*
X140542184Y-70005051D01*
X140731588Y-70101557D01*
X140933757Y-70167246D01*
X141143713Y-70200500D01*
X141143714Y-70200500D01*
X141356286Y-70200500D01*
X141356287Y-70200500D01*
X141566243Y-70167246D01*
X141768412Y-70101557D01*
X141957816Y-70005051D01*
X141979789Y-69989086D01*
X142129786Y-69880109D01*
X142129788Y-69880106D01*
X142129792Y-69880104D01*
X142280104Y-69729792D01*
X142399683Y-69565204D01*
X142455011Y-69522540D01*
X142524624Y-69516561D01*
X142586420Y-69549166D01*
X142600313Y-69565199D01*
X142719659Y-69729466D01*
X142719896Y-69729792D01*
X142870213Y-69880109D01*
X143042179Y-70005048D01*
X143042181Y-70005049D01*
X143042184Y-70005051D01*
X143231588Y-70101557D01*
X143433757Y-70167246D01*
X143643713Y-70200500D01*
X143643714Y-70200500D01*
X143856286Y-70200500D01*
X143856287Y-70200500D01*
X144066243Y-70167246D01*
X144268412Y-70101557D01*
X144457816Y-70005051D01*
X144479789Y-69989086D01*
X144629786Y-69880109D01*
X144629788Y-69880106D01*
X144629792Y-69880104D01*
X144737819Y-69772077D01*
X144799142Y-69738592D01*
X144868834Y-69743576D01*
X144924767Y-69785448D01*
X144949184Y-69850912D01*
X144949500Y-69859758D01*
X144949500Y-70654191D01*
X144929815Y-70721230D01*
X144913181Y-70741872D01*
X141494727Y-74160325D01*
X141494724Y-74160328D01*
X141424955Y-74264747D01*
X141423535Y-74266871D01*
X141423533Y-74266874D01*
X141389061Y-74350100D01*
X141345220Y-74404503D01*
X141278926Y-74426568D01*
X141211227Y-74409289D01*
X141163616Y-74358152D01*
X141150500Y-74302647D01*
X141150500Y-73576079D01*
X141121659Y-73431092D01*
X141121658Y-73431091D01*
X141121658Y-73431087D01*
X141111144Y-73405703D01*
X141065087Y-73294511D01*
X141065080Y-73294498D01*
X140982952Y-73171585D01*
X140977758Y-73166391D01*
X140878416Y-73067049D01*
X139860867Y-72049500D01*
X138123991Y-70312623D01*
X138090506Y-70251300D01*
X138095490Y-70181608D01*
X138137362Y-70125675D01*
X138202826Y-70101258D01*
X138249990Y-70107011D01*
X138433871Y-70166757D01*
X138500000Y-70177231D01*
X138500000Y-69129145D01*
X138566657Y-69167630D01*
X138687465Y-69200000D01*
X138812535Y-69200000D01*
X138933343Y-69167630D01*
X139000000Y-69129145D01*
X139000000Y-70177230D01*
G37*
%TD.AperFunction*%
%TA.AperFunction,Conductor*%
G36*
X139000000Y-62177230D02*
G01*
X139066126Y-62166757D01*
X139066129Y-62166757D01*
X139268217Y-62101095D01*
X139457557Y-62004620D01*
X139629459Y-61879727D01*
X139629464Y-61879723D01*
X139779721Y-61729466D01*
X139899371Y-61564781D01*
X139954701Y-61522115D01*
X140024314Y-61516136D01*
X140086110Y-61548741D01*
X140100008Y-61564781D01*
X140219890Y-61729785D01*
X140219894Y-61729790D01*
X140370213Y-61880109D01*
X140542179Y-62005048D01*
X140542181Y-62005049D01*
X140542184Y-62005051D01*
X140731588Y-62101557D01*
X140933757Y-62167246D01*
X141143713Y-62200500D01*
X141143714Y-62200500D01*
X141356286Y-62200500D01*
X141356287Y-62200500D01*
X141566243Y-62167246D01*
X141768412Y-62101557D01*
X141957816Y-62005051D01*
X142068686Y-61924500D01*
X142129786Y-61880109D01*
X142129788Y-61880106D01*
X142129792Y-61880104D01*
X142280104Y-61729792D01*
X142399683Y-61565204D01*
X142455011Y-61522540D01*
X142524624Y-61516561D01*
X142586420Y-61549166D01*
X142600313Y-61565199D01*
X142630913Y-61607316D01*
X142719896Y-61729792D01*
X142870213Y-61880109D01*
X143042179Y-62005048D01*
X143042181Y-62005049D01*
X143042184Y-62005051D01*
X143231588Y-62101557D01*
X143433757Y-62167246D01*
X143643713Y-62200500D01*
X143643714Y-62200500D01*
X143856286Y-62200500D01*
X143856287Y-62200500D01*
X144066243Y-62167246D01*
X144268412Y-62101557D01*
X144457816Y-62005051D01*
X144590660Y-61908535D01*
X144656466Y-61885055D01*
X144724520Y-61900881D01*
X144751226Y-61921172D01*
X144913181Y-62083127D01*
X144946666Y-62144450D01*
X144949500Y-62170808D01*
X144949500Y-67590242D01*
X144929815Y-67657281D01*
X144877011Y-67703036D01*
X144807853Y-67712980D01*
X144744297Y-67683955D01*
X144737819Y-67677923D01*
X144629786Y-67569890D01*
X144457820Y-67444951D01*
X144268414Y-67348444D01*
X144268413Y-67348443D01*
X144268412Y-67348443D01*
X144066243Y-67282754D01*
X144066241Y-67282753D01*
X144066240Y-67282753D01*
X143904957Y-67257208D01*
X143856287Y-67249500D01*
X143643713Y-67249500D01*
X143595042Y-67257208D01*
X143433760Y-67282753D01*
X143231585Y-67348444D01*
X143042179Y-67444951D01*
X142870213Y-67569890D01*
X142719894Y-67720209D01*
X142719890Y-67720214D01*
X142600318Y-67884793D01*
X142544989Y-67927459D01*
X142475375Y-67933438D01*
X142413580Y-67900833D01*
X142399682Y-67884793D01*
X142280109Y-67720214D01*
X142280105Y-67720209D01*
X142129786Y-67569890D01*
X141957820Y-67444951D01*
X141768414Y-67348444D01*
X141768413Y-67348443D01*
X141768412Y-67348443D01*
X141566243Y-67282754D01*
X141566241Y-67282753D01*
X141566240Y-67282753D01*
X141404957Y-67257208D01*
X141356287Y-67249500D01*
X141143713Y-67249500D01*
X141095042Y-67257208D01*
X140933760Y-67282753D01*
X140731585Y-67348444D01*
X140542179Y-67444951D01*
X140370213Y-67569890D01*
X140219894Y-67720209D01*
X140219890Y-67720214D01*
X140100008Y-67885218D01*
X140044678Y-67927884D01*
X139975065Y-67933863D01*
X139913270Y-67901257D01*
X139899372Y-67885218D01*
X139779727Y-67720540D01*
X139779723Y-67720535D01*
X139629464Y-67570276D01*
X139629459Y-67570272D01*
X139457557Y-67445379D01*
X139268215Y-67348903D01*
X139066124Y-67283241D01*
X139000000Y-67272768D01*
X139000000Y-68320854D01*
X138933343Y-68282370D01*
X138812535Y-68250000D01*
X138687465Y-68250000D01*
X138566657Y-68282370D01*
X138500000Y-68320854D01*
X138500000Y-67272768D01*
X138499999Y-67272768D01*
X138433875Y-67283241D01*
X138231784Y-67348903D01*
X138042442Y-67445379D01*
X137870541Y-67570271D01*
X137731668Y-67709144D01*
X137670345Y-67742628D01*
X137600653Y-67737644D01*
X137544720Y-67695772D01*
X137538448Y-67686558D01*
X137442712Y-67531344D01*
X137318657Y-67407289D01*
X137318656Y-67407288D01*
X137169334Y-67315186D01*
X137085495Y-67287404D01*
X137028051Y-67247632D01*
X137001228Y-67183116D01*
X137000500Y-67169699D01*
X137000500Y-62280300D01*
X137020185Y-62213261D01*
X137072989Y-62167506D01*
X137085482Y-62162599D01*
X137169334Y-62134814D01*
X137318656Y-62042712D01*
X137442712Y-61918656D01*
X137534814Y-61769334D01*
X137534814Y-61769331D01*
X137538448Y-61763441D01*
X137590395Y-61716716D01*
X137659358Y-61705493D01*
X137723440Y-61733336D01*
X137731668Y-61740856D01*
X137870535Y-61879723D01*
X137870540Y-61879727D01*
X138042442Y-62004620D01*
X138231782Y-62101095D01*
X138433871Y-62166757D01*
X138500000Y-62177231D01*
X138500000Y-61129145D01*
X138566657Y-61167630D01*
X138687465Y-61200000D01*
X138812535Y-61200000D01*
X138933343Y-61167630D01*
X139000000Y-61129145D01*
X139000000Y-62177230D01*
G37*
%TD.AperFunction*%
%TD*%
M02*
