M48
; DRILL file {KiCad 8.0.4} date 2024-08-09T19:06:39+0200
; FORMAT={-:-/ absolute / inch / decimal}
; #@! TF.CreationDate,2024-08-09T19:06:39+02:00
; #@! TF.GenerationSoftware,Kicad,Pcbnew,8.0.4
; #@! TF.FileFunction,Plated,1,2,PTH
FMAT,2
INCH
; #@! TA.AperFunction,Plated,PTH,ViaDrill
T1C0.0118
; #@! TA.AperFunction,Plated,PTH,ComponentDrill
T2C0.0374
%
G90
G05
T1
X4.8937Y-3.5404
X5.185Y-3.5404
X5.2874Y-3.3061
X5.2874Y-3.3376
X5.3661Y-3.3947
X5.4764Y-3.5404
X5.5561Y-3.5138
X5.5906Y-3.3386
X5.5906Y-3.4488
X5.622Y-3.1496
X5.622Y-3.1811
X5.622Y-3.4488
X5.6224Y-3.3383
X5.7362Y-3.6535
X5.7362Y-3.6969
X5.7569Y-2.9193
X5.7874Y-2.9961
X5.7874Y-3.0276
X5.7874Y-3.0591
X5.8583Y-3.2283
X6.0548Y-2.9742
T2
X5.3642Y-2.3907
X5.3642Y-2.7057
X5.4626Y-2.3907
X5.4626Y-2.7057
X5.561Y-2.3907
X5.561Y-2.7057
X5.6594Y-2.3907
X5.6594Y-2.7057
M30
