%TF.GenerationSoftware,KiCad,Pcbnew,8.0.4*%
%TF.CreationDate,2024-08-09T19:06:39+02:00*%
%TF.ProjectId,Water Tank Monitor,57617465-7220-4546-916e-6b204d6f6e69,rev?*%
%TF.SameCoordinates,Original*%
%TF.FileFunction,Copper,L2,Bot*%
%TF.FilePolarity,Positive*%
%FSLAX46Y46*%
G04 Gerber Fmt 4.6, Leading zero omitted, Abs format (unit mm)*
G04 Created by KiCad (PCBNEW 8.0.4) date 2024-08-09 19:06:39*
%MOMM*%
%LPD*%
G01*
G04 APERTURE LIST*
G04 Aperture macros list*
%AMRoundRect*
0 Rectangle with rounded corners*
0 $1 Rounding radius*
0 $2 $3 $4 $5 $6 $7 $8 $9 X,Y pos of 4 corners*
0 Add a 4 corners polygon primitive as box body*
4,1,4,$2,$3,$4,$5,$6,$7,$8,$9,$2,$3,0*
0 Add four circle primitives for the rounded corners*
1,1,$1+$1,$2,$3*
1,1,$1+$1,$4,$5*
1,1,$1+$1,$6,$7*
1,1,$1+$1,$8,$9*
0 Add four rect primitives between the rounded corners*
20,1,$1+$1,$2,$3,$4,$5,0*
20,1,$1+$1,$4,$5,$6,$7,0*
20,1,$1+$1,$6,$7,$8,$9,0*
20,1,$1+$1,$8,$9,$2,$3,0*%
G04 Aperture macros list end*
%TA.AperFunction,SMDPad,CuDef*%
%ADD10C,1.000000*%
%TD*%
%TA.AperFunction,ComponentPad*%
%ADD11RoundRect,0.250000X-0.600000X-0.725000X0.600000X-0.725000X0.600000X0.725000X-0.600000X0.725000X0*%
%TD*%
%TA.AperFunction,ComponentPad*%
%ADD12O,1.700000X1.950000*%
%TD*%
%TA.AperFunction,SMDPad,CuDef*%
%ADD13RoundRect,0.250000X-0.750000X0.400000X-0.750000X-0.400000X0.750000X-0.400000X0.750000X0.400000X0*%
%TD*%
%TA.AperFunction,SMDPad,CuDef*%
%ADD14RoundRect,0.250000X-0.750000X0.750000X-0.750000X-0.750000X0.750000X-0.750000X0.750000X0.750000X0*%
%TD*%
%TA.AperFunction,ViaPad*%
%ADD15C,0.600000*%
%TD*%
%TA.AperFunction,Conductor*%
%ADD16C,0.300000*%
%TD*%
%TA.AperFunction,Conductor*%
%ADD17C,0.500000*%
%TD*%
%TA.AperFunction,Conductor*%
%ADD18C,0.200000*%
%TD*%
G04 APERTURE END LIST*
D10*
%TO.P,J6,1,Pin_1*%
%TO.N,/RXD*%
X151730000Y-77475000D03*
%TO.P,J6,2,Pin_2*%
%TO.N,+3.3V*%
X153000000Y-77475000D03*
%TO.P,J6,3,Pin_3*%
%TO.N,/TXD*%
X151730000Y-76205000D03*
%TO.P,J6,4,Pin_4*%
%TO.N,unconnected-(J6-Pin_4-Pad4)*%
X153000000Y-76205000D03*
%TO.P,J6,5,Pin_5*%
%TO.N,Net-(J6-Pin_5)*%
X151730000Y-74935000D03*
%TO.P,J6,6,Pin_6*%
%TO.N,GND*%
X153000000Y-74935000D03*
%TD*%
D11*
%TO.P,J1,1,Pin_1*%
%TO.N,+3.3V*%
X136250000Y-68725000D03*
D12*
%TO.P,J1,2,Pin_2*%
%TO.N,GND*%
X138750000Y-68725000D03*
%TO.P,J1,3,Pin_3*%
%TO.N,/RXD*%
X141250000Y-68725000D03*
%TO.P,J1,4,Pin_4*%
%TO.N,/TXD*%
X143750000Y-68725000D03*
%TD*%
D11*
%TO.P,J3,1,Pin_1*%
%TO.N,+3.3V*%
X136250000Y-60725000D03*
D12*
%TO.P,J3,2,Pin_2*%
%TO.N,GND*%
X138750000Y-60725000D03*
%TO.P,J3,3,Pin_3*%
%TO.N,/RXD2*%
X141250000Y-60725000D03*
%TO.P,J3,4,Pin_4*%
%TO.N,/TXD2*%
X143750000Y-60725000D03*
%TD*%
D13*
%TO.P,RV1,1,1*%
%TO.N,+3.3V*%
X122250000Y-91575000D03*
D14*
%TO.P,RV1,2,2*%
%TO.N,/CALIB*%
X126250000Y-92725000D03*
D13*
%TO.P,RV1,3,3*%
%TO.N,GND*%
X122250000Y-93875000D03*
%TD*%
%TO.P,RV2,1,1*%
%TO.N,+3.3V*%
X122250000Y-85975000D03*
D14*
%TO.P,RV2,2,2*%
%TO.N,/BRIGH*%
X126250000Y-87125000D03*
D13*
%TO.P,RV2,3,3*%
%TO.N,GND*%
X122250000Y-88275000D03*
%TD*%
D15*
%TO.N,+3.3V*%
X153791985Y-75545545D03*
X139100000Y-89925000D03*
X124300000Y-89925000D03*
X131700000Y-89925000D03*
X148800000Y-82000000D03*
%TO.N,/SDA*%
X145700000Y-92800000D03*
X142808001Y-84791999D03*
%TO.N,/SCL*%
X145700000Y-93900000D03*
X142000000Y-84800000D03*
%TO.N,GND*%
X141125000Y-89250000D03*
%TO.N,/BRIGH*%
X142800000Y-87600000D03*
%TO.N,/CALIB*%
X142000000Y-87600000D03*
%TO.N,Net-(J6-Pin_5)*%
X146225000Y-74150000D03*
%TO.N,/RXD*%
X142800000Y-80800000D03*
%TO.N,/TXD*%
X142800000Y-80000000D03*
%TO.N,/MISO*%
X134300000Y-84775000D03*
X147000000Y-76900000D03*
%TO.N,/SCK*%
X136300000Y-86225000D03*
X147000000Y-77700000D03*
%TO.N,/MOSI*%
X147000000Y-76100000D03*
X134300000Y-83975000D03*
%TD*%
D16*
%TO.N,/MOSI*%
X136075000Y-82200000D02*
X144200000Y-82200000D01*
X144200000Y-82200000D02*
X145600000Y-80800000D01*
X145600000Y-80800000D02*
X145600000Y-77290381D01*
X145600000Y-77290381D02*
X146790381Y-76100000D01*
X134300000Y-83975000D02*
X136075000Y-82200000D01*
X146790381Y-76100000D02*
X147000000Y-76100000D01*
%TO.N,/RXD*%
X151730000Y-77475000D02*
X149655000Y-75400000D01*
X149655000Y-75400000D02*
X143803870Y-75400000D01*
X143450000Y-75753870D02*
X143450000Y-80269239D01*
X142919239Y-80800000D02*
X142800000Y-80800000D01*
X143803870Y-75400000D02*
X143450000Y-75753870D01*
X143450000Y-80269239D02*
X142919239Y-80800000D01*
%TO.N,Net-(J6-Pin_5)*%
X146225000Y-74150000D02*
X146275000Y-74200000D01*
X146275000Y-74200000D02*
X150995000Y-74200000D01*
X150995000Y-74200000D02*
X151730000Y-74935000D01*
%TO.N,/TXD*%
X151730000Y-76205000D02*
X150325000Y-74800000D01*
X142800000Y-75400000D02*
X142800000Y-75800000D01*
X150325000Y-74800000D02*
X143400000Y-74800000D01*
X143400000Y-74800000D02*
X142800000Y-75400000D01*
D17*
%TO.N,GND*%
X153000000Y-74935000D02*
X153000000Y-73800000D01*
D16*
%TO.N,/MISO*%
X146200000Y-81100000D02*
X146200000Y-77580761D01*
X146200000Y-77580761D02*
X146880761Y-76900000D01*
X146880761Y-76900000D02*
X147000000Y-76900000D01*
%TO.N,/SCK*%
X146777000Y-81423000D02*
X146777000Y-77923000D01*
X146777000Y-77923000D02*
X147000000Y-77700000D01*
%TO.N,/MISO*%
X134300000Y-84775000D02*
X134419239Y-84775000D01*
X134419239Y-84775000D02*
X136394239Y-82800000D01*
X136394239Y-82800000D02*
X144500000Y-82800000D01*
X144500000Y-82800000D02*
X146200000Y-81100000D01*
%TO.N,/SCK*%
X136900000Y-83400000D02*
X136300000Y-84000000D01*
X136300000Y-84000000D02*
X136300000Y-86225000D01*
X146777000Y-81423000D02*
X144800000Y-83400000D01*
X144800000Y-83400000D02*
X136900000Y-83400000D01*
D17*
%TO.N,+3.3V*%
X148800000Y-82000000D02*
X149550000Y-81250000D01*
X150575000Y-78425000D02*
X152123503Y-78425000D01*
X152123503Y-78425000D02*
X153000000Y-77548503D01*
X149550000Y-81250000D02*
X149550000Y-79450000D01*
X149550000Y-79450000D02*
X150575000Y-78425000D01*
X153000000Y-77548503D02*
X153000000Y-77475000D01*
X153791985Y-75545545D02*
X153950000Y-75703560D01*
X153073503Y-77475000D02*
X153000000Y-77475000D01*
X153950000Y-75703560D02*
X153950000Y-76598503D01*
X153950000Y-76598503D02*
X153073503Y-77475000D01*
D16*
%TO.N,/RXD*%
X141250000Y-68725000D02*
X141475000Y-68725000D01*
X141475000Y-68725000D02*
X142150000Y-69400000D01*
X142680761Y-80800000D02*
X142800000Y-80800000D01*
X142150000Y-69400000D02*
X142150000Y-80269239D01*
X142150000Y-80269239D02*
X142680761Y-80800000D01*
%TO.N,/CALIB*%
X126250000Y-92725000D02*
X126250000Y-90150000D01*
X128800000Y-87600000D02*
X142000000Y-87600000D01*
X126250000Y-90150000D02*
X128800000Y-87600000D01*
%TO.N,/BRIGH*%
X126250000Y-87125000D02*
X126425000Y-86950000D01*
X126425000Y-86950000D02*
X142269239Y-86950000D01*
X142269239Y-86950000D02*
X142800000Y-87480761D01*
X142800000Y-87480761D02*
X142800000Y-87600000D01*
%TO.N,/TXD*%
X143750000Y-68725000D02*
X142800000Y-69675000D01*
X142800000Y-69675000D02*
X142800000Y-80000000D01*
%TO.N,+3.3V*%
X124300000Y-89925000D02*
X122650000Y-91575000D01*
X124300000Y-89925000D02*
X124300000Y-88025000D01*
D18*
X122925000Y-91575000D02*
X122250000Y-91575000D01*
D16*
X124300000Y-88025000D02*
X122250000Y-85975000D01*
X131700000Y-89925000D02*
X139100000Y-89925000D01*
D17*
X122650000Y-91575000D02*
X122250000Y-91575000D01*
D16*
%TO.N,/SCL*%
X145700000Y-93900000D02*
X145050000Y-93250000D01*
X145050000Y-93250000D02*
X145050000Y-87953237D01*
X145050000Y-87953237D02*
X142000000Y-84903237D01*
X142000000Y-84903237D02*
X142000000Y-84800000D01*
%TO.N,/SDA*%
X142808001Y-84791999D02*
X145700000Y-87683998D01*
X145700000Y-87683998D02*
X145700000Y-92800000D01*
%TD*%
%TA.AperFunction,Conductor*%
%TO.N,GND*%
G36*
X150342539Y-57020185D02*
G01*
X150388294Y-57072989D01*
X150399500Y-57124500D01*
X150399500Y-61365891D01*
X150433608Y-61493187D01*
X150465683Y-61548741D01*
X150499500Y-61607314D01*
X150592686Y-61700500D01*
X150706814Y-61766392D01*
X150834108Y-61800500D01*
X154725500Y-61800500D01*
X154792539Y-61820185D01*
X154838294Y-61872989D01*
X154849500Y-61924500D01*
X154849500Y-67975500D01*
X154829815Y-68042539D01*
X154777011Y-68088294D01*
X154725500Y-68099500D01*
X150834108Y-68099500D01*
X150706812Y-68133608D01*
X150592686Y-68199500D01*
X150592683Y-68199502D01*
X150499502Y-68292683D01*
X150499500Y-68292686D01*
X150433608Y-68406812D01*
X150399500Y-68534108D01*
X150399500Y-72765891D01*
X150433608Y-72893187D01*
X150466554Y-72950250D01*
X150499500Y-73007314D01*
X150592686Y-73100500D01*
X150706814Y-73166392D01*
X150834108Y-73200500D01*
X154725500Y-73200500D01*
X154792539Y-73220185D01*
X154838294Y-73272989D01*
X154849500Y-73324500D01*
X154849500Y-75291590D01*
X154829815Y-75358629D01*
X154777011Y-75404384D01*
X154707853Y-75414328D01*
X154644297Y-75385303D01*
X154618558Y-75353071D01*
X154618469Y-75353131D01*
X154617763Y-75352074D01*
X154616144Y-75350047D01*
X154615086Y-75348068D01*
X154615084Y-75348065D01*
X154548620Y-75248594D01*
X154532952Y-75225144D01*
X154531221Y-75222553D01*
X154521054Y-75202177D01*
X154520798Y-75202301D01*
X154517777Y-75196029D01*
X154517774Y-75196025D01*
X154517774Y-75196023D01*
X154421801Y-75043283D01*
X154294247Y-74915729D01*
X154247908Y-74886612D01*
X154141506Y-74819755D01*
X154053855Y-74789085D01*
X153997078Y-74748363D01*
X153976148Y-74708038D01*
X153928347Y-74550460D01*
X153835496Y-74376746D01*
X153835492Y-74376739D01*
X153710528Y-74224471D01*
X153558260Y-74099507D01*
X153558253Y-74099503D01*
X153384541Y-74006652D01*
X153250000Y-73965839D01*
X153250000Y-74904090D01*
X153230315Y-74971129D01*
X153213681Y-74991771D01*
X153162169Y-75043282D01*
X153109584Y-75126972D01*
X153057249Y-75173263D01*
X153004590Y-75185000D01*
X152874000Y-75185000D01*
X152806961Y-75165315D01*
X152761206Y-75112511D01*
X152750000Y-75061000D01*
X152750000Y-73965839D01*
X152749999Y-73965839D01*
X152615458Y-74006652D01*
X152441742Y-74099505D01*
X152436673Y-74102893D01*
X152435556Y-74101221D01*
X152379715Y-74124921D01*
X152310851Y-74113111D01*
X152293811Y-74102158D01*
X152293601Y-74102473D01*
X152288532Y-74099086D01*
X152114733Y-74006188D01*
X152114727Y-74006186D01*
X151926132Y-73948976D01*
X151926129Y-73948975D01*
X151730000Y-73929659D01*
X151710625Y-73931567D01*
X151641979Y-73918547D01*
X151610791Y-73895845D01*
X151409674Y-73694727D01*
X151409673Y-73694726D01*
X151409669Y-73694723D01*
X151303127Y-73623535D01*
X151184744Y-73574499D01*
X151184742Y-73574498D01*
X151184741Y-73574498D01*
X151179903Y-73573536D01*
X151179898Y-73573535D01*
X151059071Y-73549500D01*
X151059069Y-73549500D01*
X146807412Y-73549500D01*
X146740373Y-73529815D01*
X146730097Y-73522445D01*
X146727263Y-73520185D01*
X146727262Y-73520184D01*
X146670496Y-73484515D01*
X146574523Y-73424211D01*
X146404254Y-73364631D01*
X146404249Y-73364630D01*
X146225004Y-73344435D01*
X146224996Y-73344435D01*
X146045750Y-73364630D01*
X146045745Y-73364631D01*
X145875476Y-73424211D01*
X145722737Y-73520184D01*
X145595184Y-73647737D01*
X145499210Y-73800478D01*
X145439630Y-73970750D01*
X145431898Y-74039383D01*
X145404832Y-74103797D01*
X145347237Y-74143352D01*
X145308678Y-74149500D01*
X143574500Y-74149500D01*
X143507461Y-74129815D01*
X143461706Y-74077011D01*
X143450500Y-74025500D01*
X143450500Y-70315082D01*
X143470185Y-70248043D01*
X143522989Y-70202288D01*
X143592147Y-70192344D01*
X143593744Y-70192585D01*
X143643713Y-70200500D01*
X143643716Y-70200500D01*
X143856286Y-70200500D01*
X143856287Y-70200500D01*
X144066243Y-70167246D01*
X144268412Y-70101557D01*
X144457816Y-70005051D01*
X144479789Y-69989086D01*
X144629786Y-69880109D01*
X144629788Y-69880106D01*
X144629792Y-69880104D01*
X144780104Y-69729792D01*
X144780106Y-69729788D01*
X144780109Y-69729786D01*
X144905048Y-69557820D01*
X144905047Y-69557820D01*
X144905051Y-69557816D01*
X145001557Y-69368412D01*
X145067246Y-69166243D01*
X145100500Y-68956287D01*
X145100500Y-68493713D01*
X145067246Y-68283757D01*
X145001557Y-68081588D01*
X144905051Y-67892184D01*
X144905049Y-67892181D01*
X144905048Y-67892179D01*
X144780109Y-67720213D01*
X144629786Y-67569890D01*
X144457820Y-67444951D01*
X144268414Y-67348444D01*
X144268413Y-67348443D01*
X144268412Y-67348443D01*
X144066243Y-67282754D01*
X144066241Y-67282753D01*
X144066240Y-67282753D01*
X143904957Y-67257208D01*
X143856287Y-67249500D01*
X143643713Y-67249500D01*
X143595042Y-67257208D01*
X143433760Y-67282753D01*
X143231585Y-67348444D01*
X143042179Y-67444951D01*
X142870213Y-67569890D01*
X142719894Y-67720209D01*
X142719890Y-67720214D01*
X142600318Y-67884793D01*
X142544989Y-67927459D01*
X142475375Y-67933438D01*
X142413580Y-67900833D01*
X142399682Y-67884793D01*
X142280109Y-67720214D01*
X142280105Y-67720209D01*
X142129786Y-67569890D01*
X141957820Y-67444951D01*
X141768414Y-67348444D01*
X141768413Y-67348443D01*
X141768412Y-67348443D01*
X141566243Y-67282754D01*
X141566241Y-67282753D01*
X141566240Y-67282753D01*
X141404957Y-67257208D01*
X141356287Y-67249500D01*
X141143713Y-67249500D01*
X141095042Y-67257208D01*
X140933760Y-67282753D01*
X140731585Y-67348444D01*
X140542179Y-67444951D01*
X140370213Y-67569890D01*
X140219894Y-67720209D01*
X140219890Y-67720214D01*
X140100008Y-67885218D01*
X140044678Y-67927884D01*
X139975065Y-67933863D01*
X139913270Y-67901257D01*
X139899372Y-67885218D01*
X139779727Y-67720540D01*
X139779723Y-67720535D01*
X139629464Y-67570276D01*
X139629459Y-67570272D01*
X139457557Y-67445379D01*
X139268215Y-67348903D01*
X139066124Y-67283241D01*
X139000000Y-67272768D01*
X139000000Y-68320854D01*
X138933343Y-68282370D01*
X138812535Y-68250000D01*
X138687465Y-68250000D01*
X138566657Y-68282370D01*
X138500000Y-68320854D01*
X138500000Y-67272768D01*
X138499999Y-67272768D01*
X138433875Y-67283241D01*
X138231784Y-67348903D01*
X138042442Y-67445379D01*
X137870541Y-67570271D01*
X137731668Y-67709144D01*
X137670345Y-67742628D01*
X137600653Y-67737644D01*
X137544720Y-67695772D01*
X137538448Y-67686558D01*
X137442712Y-67531344D01*
X137318657Y-67407289D01*
X137318656Y-67407288D01*
X137169334Y-67315186D01*
X137002797Y-67260001D01*
X137002795Y-67260000D01*
X136900010Y-67249500D01*
X135599998Y-67249500D01*
X135599981Y-67249501D01*
X135497203Y-67260000D01*
X135497200Y-67260001D01*
X135330668Y-67315185D01*
X135330663Y-67315187D01*
X135181342Y-67407289D01*
X135057289Y-67531342D01*
X134965187Y-67680663D01*
X134965185Y-67680668D01*
X134960180Y-67695772D01*
X134910001Y-67847203D01*
X134910001Y-67847204D01*
X134910000Y-67847204D01*
X134899500Y-67949983D01*
X134899500Y-69500001D01*
X134899501Y-69500018D01*
X134910000Y-69602796D01*
X134910001Y-69602799D01*
X134944031Y-69705493D01*
X134965186Y-69769334D01*
X135057288Y-69918656D01*
X135181344Y-70042712D01*
X135330666Y-70134814D01*
X135497203Y-70189999D01*
X135599991Y-70200500D01*
X136900008Y-70200499D01*
X137002797Y-70189999D01*
X137169334Y-70134814D01*
X137318656Y-70042712D01*
X137442712Y-69918656D01*
X137534814Y-69769334D01*
X137534814Y-69769331D01*
X137538448Y-69763441D01*
X137590395Y-69716716D01*
X137659358Y-69705493D01*
X137723440Y-69733336D01*
X137731668Y-69740856D01*
X137870535Y-69879723D01*
X137870540Y-69879727D01*
X138042442Y-70004620D01*
X138231782Y-70101095D01*
X138433871Y-70166757D01*
X138500000Y-70177231D01*
X138500000Y-69129145D01*
X138566657Y-69167630D01*
X138687465Y-69200000D01*
X138812535Y-69200000D01*
X138933343Y-69167630D01*
X139000000Y-69129145D01*
X139000000Y-70177230D01*
X139066126Y-70166757D01*
X139066129Y-70166757D01*
X139268217Y-70101095D01*
X139457557Y-70004620D01*
X139629459Y-69879727D01*
X139629464Y-69879723D01*
X139779721Y-69729466D01*
X139899371Y-69564781D01*
X139954701Y-69522115D01*
X140024314Y-69516136D01*
X140086110Y-69548741D01*
X140100008Y-69564781D01*
X140219890Y-69729785D01*
X140219894Y-69729790D01*
X140370213Y-69880109D01*
X140542179Y-70005048D01*
X140542181Y-70005049D01*
X140542184Y-70005051D01*
X140731588Y-70101557D01*
X140933757Y-70167246D01*
X141143713Y-70200500D01*
X141143714Y-70200500D01*
X141356287Y-70200500D01*
X141361138Y-70200118D01*
X141361222Y-70201191D01*
X141425392Y-70209482D01*
X141478845Y-70254476D01*
X141499487Y-70321227D01*
X141499500Y-70323002D01*
X141499500Y-80333310D01*
X141519635Y-80434530D01*
X141524499Y-80458983D01*
X141569188Y-80566873D01*
X141573535Y-80577366D01*
X141644723Y-80683908D01*
X141644726Y-80683912D01*
X141644727Y-80683913D01*
X142034752Y-81073937D01*
X142064112Y-81120661D01*
X142074212Y-81149524D01*
X142170184Y-81302262D01*
X142205741Y-81337819D01*
X142239226Y-81399142D01*
X142234242Y-81468834D01*
X142192370Y-81524767D01*
X142126906Y-81549184D01*
X142118060Y-81549500D01*
X136010929Y-81549500D01*
X135885261Y-81574497D01*
X135885255Y-81574499D01*
X135766874Y-81623534D01*
X135660326Y-81694726D01*
X134201775Y-83153277D01*
X134140452Y-83186762D01*
X134127988Y-83188815D01*
X134120752Y-83189630D01*
X134120744Y-83189632D01*
X133950478Y-83249210D01*
X133797737Y-83345184D01*
X133670184Y-83472737D01*
X133574211Y-83625476D01*
X133514631Y-83795745D01*
X133514630Y-83795750D01*
X133494435Y-83974996D01*
X133494435Y-83975003D01*
X133514630Y-84154249D01*
X133514633Y-84154262D01*
X133576510Y-84331094D01*
X133574364Y-84331844D01*
X133583962Y-84390144D01*
X133575609Y-84418590D01*
X133576510Y-84418906D01*
X133514633Y-84595737D01*
X133514630Y-84595750D01*
X133494435Y-84774996D01*
X133494435Y-84775003D01*
X133514630Y-84954249D01*
X133514631Y-84954254D01*
X133574211Y-85124523D01*
X133670184Y-85277262D01*
X133797738Y-85404816D01*
X133950478Y-85500789D01*
X134021924Y-85525789D01*
X134120745Y-85560368D01*
X134120750Y-85560369D01*
X134299996Y-85580565D01*
X134300000Y-85580565D01*
X134300004Y-85580565D01*
X134479249Y-85560369D01*
X134479252Y-85560368D01*
X134479255Y-85560368D01*
X134649522Y-85500789D01*
X134802262Y-85404816D01*
X134929816Y-85277262D01*
X135025789Y-85124522D01*
X135035887Y-85095662D01*
X135065245Y-85048938D01*
X135437820Y-84676364D01*
X135499142Y-84642880D01*
X135568834Y-84647864D01*
X135624767Y-84689736D01*
X135649184Y-84755200D01*
X135649500Y-84764046D01*
X135649500Y-85719931D01*
X135630494Y-85785903D01*
X135574211Y-85875477D01*
X135574209Y-85875481D01*
X135514633Y-86045737D01*
X135514630Y-86045750D01*
X135498448Y-86189383D01*
X135471382Y-86253797D01*
X135413787Y-86293352D01*
X135375228Y-86299500D01*
X127855154Y-86299500D01*
X127788115Y-86279815D01*
X127742360Y-86227011D01*
X127737448Y-86214504D01*
X127711637Y-86136612D01*
X127684814Y-86055666D01*
X127592712Y-85906344D01*
X127468656Y-85782288D01*
X127319334Y-85690186D01*
X127152797Y-85635001D01*
X127152795Y-85635000D01*
X127050010Y-85624500D01*
X125449998Y-85624500D01*
X125449981Y-85624501D01*
X125347203Y-85635000D01*
X125347200Y-85635001D01*
X125180668Y-85690185D01*
X125180663Y-85690187D01*
X125031342Y-85782289D01*
X124907289Y-85906342D01*
X124815187Y-86055663D01*
X124815185Y-86055668D01*
X124788369Y-86136594D01*
X124760001Y-86222203D01*
X124760001Y-86222204D01*
X124760000Y-86222204D01*
X124749500Y-86324983D01*
X124749500Y-87255192D01*
X124729815Y-87322231D01*
X124677011Y-87367986D01*
X124607853Y-87377930D01*
X124544297Y-87348905D01*
X124537819Y-87342873D01*
X123780065Y-86585119D01*
X123746580Y-86523796D01*
X123744388Y-86484835D01*
X123750499Y-86425016D01*
X123750500Y-86425009D01*
X123750499Y-85524992D01*
X123739999Y-85422203D01*
X123684814Y-85255666D01*
X123592712Y-85106344D01*
X123468656Y-84982288D01*
X123319334Y-84890186D01*
X123152797Y-84835001D01*
X123152795Y-84835000D01*
X123050010Y-84824500D01*
X121449998Y-84824500D01*
X121449981Y-84824501D01*
X121347203Y-84835000D01*
X121347200Y-84835001D01*
X121180668Y-84890185D01*
X121180663Y-84890187D01*
X121031342Y-84982289D01*
X120907289Y-85106342D01*
X120815187Y-85255663D01*
X120815185Y-85255668D01*
X120787349Y-85339670D01*
X120760001Y-85422203D01*
X120760001Y-85422204D01*
X120760000Y-85422204D01*
X120749500Y-85524983D01*
X120749500Y-86425001D01*
X120749501Y-86425019D01*
X120760000Y-86527796D01*
X120760001Y-86527799D01*
X120815185Y-86694331D01*
X120815187Y-86694336D01*
X120907289Y-86843657D01*
X121031344Y-86967712D01*
X121115718Y-87019754D01*
X121162443Y-87071702D01*
X121173666Y-87140664D01*
X121145822Y-87204747D01*
X121115720Y-87230831D01*
X121031656Y-87282682D01*
X120907684Y-87406654D01*
X120815643Y-87555875D01*
X120815641Y-87555880D01*
X120760494Y-87722302D01*
X120760493Y-87722309D01*
X120750000Y-87825013D01*
X120750000Y-88025000D01*
X122376000Y-88025000D01*
X122443039Y-88044685D01*
X122488794Y-88097489D01*
X122500000Y-88149000D01*
X122500000Y-89424999D01*
X123049972Y-89424999D01*
X123049986Y-89424998D01*
X123152697Y-89414505D01*
X123319119Y-89359358D01*
X123319130Y-89359353D01*
X123460403Y-89272215D01*
X123527795Y-89253774D01*
X123594459Y-89274696D01*
X123639229Y-89328338D01*
X123649500Y-89377753D01*
X123649500Y-89419931D01*
X123630494Y-89485903D01*
X123574211Y-89575476D01*
X123514632Y-89745745D01*
X123514630Y-89745752D01*
X123513815Y-89752988D01*
X123486743Y-89817400D01*
X123478277Y-89826775D01*
X122916871Y-90388181D01*
X122855548Y-90421666D01*
X122829190Y-90424500D01*
X121449998Y-90424500D01*
X121449981Y-90424501D01*
X121347203Y-90435000D01*
X121347200Y-90435001D01*
X121180668Y-90490185D01*
X121180663Y-90490187D01*
X121031342Y-90582289D01*
X120907289Y-90706342D01*
X120815187Y-90855663D01*
X120815186Y-90855666D01*
X120760001Y-91022203D01*
X120760001Y-91022204D01*
X120760000Y-91022204D01*
X120749500Y-91124983D01*
X120749500Y-92025001D01*
X120749501Y-92025019D01*
X120760000Y-92127796D01*
X120760001Y-92127799D01*
X120815185Y-92294331D01*
X120815187Y-92294336D01*
X120907289Y-92443657D01*
X121031344Y-92567712D01*
X121115718Y-92619754D01*
X121162443Y-92671702D01*
X121173666Y-92740664D01*
X121145822Y-92804747D01*
X121115720Y-92830831D01*
X121031656Y-92882682D01*
X120907684Y-93006654D01*
X120815643Y-93155875D01*
X120815641Y-93155880D01*
X120760494Y-93322302D01*
X120760493Y-93322309D01*
X120750000Y-93425013D01*
X120750000Y-93625000D01*
X123749999Y-93625000D01*
X123749999Y-93425028D01*
X123749998Y-93425013D01*
X123739505Y-93322302D01*
X123684358Y-93155880D01*
X123684356Y-93155875D01*
X123592315Y-93006654D01*
X123468344Y-92882683D01*
X123468340Y-92882680D01*
X123384280Y-92830831D01*
X123337555Y-92778883D01*
X123326334Y-92709921D01*
X123354177Y-92645839D01*
X123384278Y-92619756D01*
X123468656Y-92567712D01*
X123592712Y-92443656D01*
X123684814Y-92294334D01*
X123739999Y-92127797D01*
X123750500Y-92025009D01*
X123750499Y-91445806D01*
X123770183Y-91378768D01*
X123786813Y-91358131D01*
X124398224Y-90746720D01*
X124459545Y-90713237D01*
X124472019Y-90711183D01*
X124479255Y-90710368D01*
X124649522Y-90650789D01*
X124802262Y-90554816D01*
X124929816Y-90427262D01*
X125025789Y-90274522D01*
X125085368Y-90104255D01*
X125105565Y-89925000D01*
X125086184Y-89752988D01*
X125085369Y-89745750D01*
X125085366Y-89745737D01*
X125025790Y-89575481D01*
X125025789Y-89575478D01*
X125004008Y-89540814D01*
X124969506Y-89485903D01*
X124950500Y-89419931D01*
X124950500Y-88640021D01*
X124970185Y-88572982D01*
X125022989Y-88527227D01*
X125092147Y-88517283D01*
X125139594Y-88534481D01*
X125180666Y-88559814D01*
X125347203Y-88614999D01*
X125449991Y-88625500D01*
X126555191Y-88625499D01*
X126622230Y-88645184D01*
X126667985Y-88697987D01*
X126677929Y-88767146D01*
X126648904Y-88830702D01*
X126642872Y-88837180D01*
X125744726Y-89735326D01*
X125673534Y-89841874D01*
X125624499Y-89960255D01*
X125624497Y-89960261D01*
X125599500Y-90085928D01*
X125599500Y-91100500D01*
X125579815Y-91167539D01*
X125527011Y-91213294D01*
X125475504Y-91224500D01*
X125450000Y-91224500D01*
X125449980Y-91224501D01*
X125347203Y-91235000D01*
X125347200Y-91235001D01*
X125180668Y-91290185D01*
X125180663Y-91290187D01*
X125031342Y-91382289D01*
X124907289Y-91506342D01*
X124815187Y-91655663D01*
X124815186Y-91655666D01*
X124760001Y-91822203D01*
X124760001Y-91822204D01*
X124760000Y-91822204D01*
X124749500Y-91924983D01*
X124749500Y-93525001D01*
X124749501Y-93525018D01*
X124760000Y-93627796D01*
X124760001Y-93627799D01*
X124803718Y-93759727D01*
X124815186Y-93794334D01*
X124907288Y-93943656D01*
X125031344Y-94067712D01*
X125180666Y-94159814D01*
X125347203Y-94214999D01*
X125449991Y-94225500D01*
X127050008Y-94225499D01*
X127152797Y-94214999D01*
X127319334Y-94159814D01*
X127468656Y-94067712D01*
X127592712Y-93943656D01*
X127684814Y-93794334D01*
X127739999Y-93627797D01*
X127750500Y-93525009D01*
X127750500Y-93375000D01*
X135184659Y-93375000D01*
X135203975Y-93571129D01*
X135203976Y-93571132D01*
X135249362Y-93720750D01*
X135261188Y-93759733D01*
X135354086Y-93933532D01*
X135354090Y-93933539D01*
X135479116Y-94085883D01*
X135631460Y-94210909D01*
X135631467Y-94210913D01*
X135805266Y-94303811D01*
X135805269Y-94303811D01*
X135805273Y-94303814D01*
X135993868Y-94361024D01*
X136190000Y-94380341D01*
X136386132Y-94361024D01*
X136574727Y-94303814D01*
X136748538Y-94210910D01*
X136900883Y-94085883D01*
X137025910Y-93933538D01*
X137118814Y-93759727D01*
X137176024Y-93571132D01*
X137195341Y-93375000D01*
X137724659Y-93375000D01*
X137743975Y-93571129D01*
X137743976Y-93571132D01*
X137789362Y-93720750D01*
X137801188Y-93759733D01*
X137894086Y-93933532D01*
X137894090Y-93933539D01*
X138019116Y-94085883D01*
X138171460Y-94210909D01*
X138171467Y-94210913D01*
X138345266Y-94303811D01*
X138345269Y-94303811D01*
X138345273Y-94303814D01*
X138533868Y-94361024D01*
X138730000Y-94380341D01*
X138926132Y-94361024D01*
X139114727Y-94303814D01*
X139288538Y-94210910D01*
X139440883Y-94085883D01*
X139565910Y-93933538D01*
X139658814Y-93759727D01*
X139716024Y-93571132D01*
X139735341Y-93375000D01*
X140264659Y-93375000D01*
X140283975Y-93571129D01*
X140283976Y-93571132D01*
X140329362Y-93720750D01*
X140341188Y-93759733D01*
X140434086Y-93933532D01*
X140434090Y-93933539D01*
X140559116Y-94085883D01*
X140711460Y-94210909D01*
X140711467Y-94210913D01*
X140885266Y-94303811D01*
X140885269Y-94303811D01*
X140885273Y-94303814D01*
X141073868Y-94361024D01*
X141270000Y-94380341D01*
X141466132Y-94361024D01*
X141654727Y-94303814D01*
X141828538Y-94210910D01*
X141980883Y-94085883D01*
X142105910Y-93933538D01*
X142198814Y-93759727D01*
X142256024Y-93571132D01*
X142275341Y-93375000D01*
X142256024Y-93178868D01*
X142198814Y-92990273D01*
X142198811Y-92990269D01*
X142198811Y-92990266D01*
X142105913Y-92816467D01*
X142105909Y-92816460D01*
X141980883Y-92664116D01*
X141828539Y-92539090D01*
X141828532Y-92539086D01*
X141654733Y-92446188D01*
X141654727Y-92446186D01*
X141466132Y-92388976D01*
X141466129Y-92388975D01*
X141270000Y-92369659D01*
X141073870Y-92388975D01*
X140885266Y-92446188D01*
X140711467Y-92539086D01*
X140711460Y-92539090D01*
X140559116Y-92664116D01*
X140434090Y-92816460D01*
X140434086Y-92816467D01*
X140341188Y-92990266D01*
X140283975Y-93178870D01*
X140264659Y-93375000D01*
X139735341Y-93375000D01*
X139716024Y-93178868D01*
X139658814Y-92990273D01*
X139658811Y-92990269D01*
X139658811Y-92990266D01*
X139565913Y-92816467D01*
X139565909Y-92816460D01*
X139440883Y-92664116D01*
X139288539Y-92539090D01*
X139288532Y-92539086D01*
X139114733Y-92446188D01*
X139114727Y-92446186D01*
X138926132Y-92388976D01*
X138926129Y-92388975D01*
X138730000Y-92369659D01*
X138533870Y-92388975D01*
X138345266Y-92446188D01*
X138171467Y-92539086D01*
X138171460Y-92539090D01*
X138019116Y-92664116D01*
X137894090Y-92816460D01*
X137894086Y-92816467D01*
X137801188Y-92990266D01*
X137743975Y-93178870D01*
X137724659Y-93375000D01*
X137195341Y-93375000D01*
X137176024Y-93178868D01*
X137118814Y-92990273D01*
X137118811Y-92990269D01*
X137118811Y-92990266D01*
X137025913Y-92816467D01*
X137025909Y-92816460D01*
X136900883Y-92664116D01*
X136748539Y-92539090D01*
X136748532Y-92539086D01*
X136574733Y-92446188D01*
X136574727Y-92446186D01*
X136386132Y-92388976D01*
X136386129Y-92388975D01*
X136190000Y-92369659D01*
X135993870Y-92388975D01*
X135805266Y-92446188D01*
X135631467Y-92539086D01*
X135631460Y-92539090D01*
X135479116Y-92664116D01*
X135354090Y-92816460D01*
X135354086Y-92816467D01*
X135261188Y-92990266D01*
X135203975Y-93178870D01*
X135184659Y-93375000D01*
X127750500Y-93375000D01*
X127750499Y-91924992D01*
X127739999Y-91822203D01*
X127684814Y-91655666D01*
X127592712Y-91506344D01*
X127468656Y-91382288D01*
X127319334Y-91290186D01*
X127152797Y-91235001D01*
X127152795Y-91235000D01*
X127050016Y-91224500D01*
X127050009Y-91224500D01*
X127024500Y-91224500D01*
X126957461Y-91204815D01*
X126911706Y-91152011D01*
X126900500Y-91100500D01*
X126900500Y-90470808D01*
X126920185Y-90403769D01*
X126936819Y-90383127D01*
X127394950Y-89924996D01*
X130894435Y-89924996D01*
X130894435Y-89925003D01*
X130914630Y-90104249D01*
X130914631Y-90104254D01*
X130974211Y-90274523D01*
X131042452Y-90383127D01*
X131070184Y-90427262D01*
X131197738Y-90554816D01*
X131241461Y-90582289D01*
X131323134Y-90633608D01*
X131350478Y-90650789D01*
X131489686Y-90699500D01*
X131520745Y-90710368D01*
X131520750Y-90710369D01*
X131699996Y-90730565D01*
X131700000Y-90730565D01*
X131700004Y-90730565D01*
X131879249Y-90710369D01*
X131879251Y-90710368D01*
X131879255Y-90710368D01*
X131879258Y-90710366D01*
X131879262Y-90710366D01*
X131969377Y-90678832D01*
X132049522Y-90650789D01*
X132139096Y-90594505D01*
X132205068Y-90575500D01*
X138594932Y-90575500D01*
X138660904Y-90594506D01*
X138750477Y-90650789D01*
X138750481Y-90650790D01*
X138920737Y-90710366D01*
X138920743Y-90710367D01*
X138920745Y-90710368D01*
X138920746Y-90710368D01*
X138920750Y-90710369D01*
X139099996Y-90730565D01*
X139100000Y-90730565D01*
X139100004Y-90730565D01*
X139279249Y-90710369D01*
X139279252Y-90710368D01*
X139279255Y-90710368D01*
X139449522Y-90650789D01*
X139602262Y-90554816D01*
X139729816Y-90427262D01*
X139825789Y-90274522D01*
X139885368Y-90104255D01*
X139905565Y-89925000D01*
X139886184Y-89752988D01*
X139885369Y-89745750D01*
X139885368Y-89745745D01*
X139825788Y-89575476D01*
X139737643Y-89435195D01*
X139729816Y-89422738D01*
X139602262Y-89295184D01*
X139539096Y-89255494D01*
X139449523Y-89199211D01*
X139279254Y-89139631D01*
X139279249Y-89139630D01*
X139100004Y-89119435D01*
X139099996Y-89119435D01*
X138920750Y-89139630D01*
X138920737Y-89139633D01*
X138750481Y-89199209D01*
X138750477Y-89199210D01*
X138660904Y-89255494D01*
X138594932Y-89274500D01*
X132205068Y-89274500D01*
X132139096Y-89255494D01*
X132049522Y-89199210D01*
X132049518Y-89199209D01*
X131879262Y-89139633D01*
X131879249Y-89139630D01*
X131700004Y-89119435D01*
X131699996Y-89119435D01*
X131520750Y-89139630D01*
X131520745Y-89139631D01*
X131350476Y-89199211D01*
X131197737Y-89295184D01*
X131070184Y-89422737D01*
X130974211Y-89575476D01*
X130914631Y-89745745D01*
X130914630Y-89745750D01*
X130894435Y-89924996D01*
X127394950Y-89924996D01*
X129033127Y-88286819D01*
X129094450Y-88253334D01*
X129120808Y-88250500D01*
X141494932Y-88250500D01*
X141560904Y-88269506D01*
X141650477Y-88325789D01*
X141650481Y-88325790D01*
X141820737Y-88385366D01*
X141820743Y-88385367D01*
X141820745Y-88385368D01*
X141820746Y-88385368D01*
X141820750Y-88385369D01*
X141999996Y-88405565D01*
X142000000Y-88405565D01*
X142000004Y-88405565D01*
X142179249Y-88385369D01*
X142179251Y-88385368D01*
X142179255Y-88385368D01*
X142179258Y-88385366D01*
X142179262Y-88385366D01*
X142356095Y-88323489D01*
X142356846Y-88325637D01*
X142415128Y-88316035D01*
X142443588Y-88324392D01*
X142443905Y-88323489D01*
X142620737Y-88385366D01*
X142620743Y-88385367D01*
X142620745Y-88385368D01*
X142620746Y-88385368D01*
X142620750Y-88385369D01*
X142799996Y-88405565D01*
X142800000Y-88405565D01*
X142800004Y-88405565D01*
X142979249Y-88385369D01*
X142979252Y-88385368D01*
X142979255Y-88385368D01*
X143149522Y-88325789D01*
X143302262Y-88229816D01*
X143429816Y-88102262D01*
X143525789Y-87949522D01*
X143585368Y-87779255D01*
X143594077Y-87701960D01*
X143621143Y-87637545D01*
X143678737Y-87597990D01*
X143748574Y-87595851D01*
X143804978Y-87628161D01*
X144363181Y-88186364D01*
X144396666Y-88247687D01*
X144399500Y-88274045D01*
X144399500Y-92348757D01*
X144379815Y-92415796D01*
X144327011Y-92461551D01*
X144257853Y-92471495D01*
X144217049Y-92458116D01*
X144194733Y-92446188D01*
X144194727Y-92446186D01*
X144006132Y-92388976D01*
X144006129Y-92388975D01*
X143810000Y-92369659D01*
X143613870Y-92388975D01*
X143425266Y-92446188D01*
X143251467Y-92539086D01*
X143251460Y-92539090D01*
X143099116Y-92664116D01*
X142974090Y-92816460D01*
X142974086Y-92816467D01*
X142881188Y-92990266D01*
X142823975Y-93178870D01*
X142804659Y-93375000D01*
X142823975Y-93571129D01*
X142823976Y-93571132D01*
X142869362Y-93720750D01*
X142881188Y-93759733D01*
X142974086Y-93933532D01*
X142974090Y-93933539D01*
X143099116Y-94085883D01*
X143251460Y-94210909D01*
X143251467Y-94210913D01*
X143425266Y-94303811D01*
X143425269Y-94303811D01*
X143425273Y-94303814D01*
X143613868Y-94361024D01*
X143810000Y-94380341D01*
X144006132Y-94361024D01*
X144194727Y-94303814D01*
X144368538Y-94210910D01*
X144520883Y-94085883D01*
X144634701Y-93947195D01*
X144692445Y-93907862D01*
X144762290Y-93905991D01*
X144818234Y-93938180D01*
X144878277Y-93998223D01*
X144911762Y-94059546D01*
X144913815Y-94072012D01*
X144914630Y-94079246D01*
X144914632Y-94079255D01*
X144974210Y-94249521D01*
X145008323Y-94303811D01*
X145070184Y-94402262D01*
X145197738Y-94529816D01*
X145288080Y-94586582D01*
X145300075Y-94594119D01*
X145350478Y-94625789D01*
X145520745Y-94685368D01*
X145520750Y-94685369D01*
X145699996Y-94705565D01*
X145700000Y-94705565D01*
X145700004Y-94705565D01*
X145879249Y-94685369D01*
X145879252Y-94685368D01*
X145879255Y-94685368D01*
X146049522Y-94625789D01*
X146202262Y-94529816D01*
X146329816Y-94402262D01*
X146425789Y-94249522D01*
X146485368Y-94079255D01*
X146494498Y-93998223D01*
X146505565Y-93900003D01*
X146505565Y-93899996D01*
X146485369Y-93720750D01*
X146485368Y-93720745D01*
X146425788Y-93550475D01*
X146346963Y-93425028D01*
X146341272Y-93415970D01*
X146322272Y-93348736D01*
X146341272Y-93284029D01*
X146425789Y-93149522D01*
X146485368Y-92979255D01*
X146496249Y-92882682D01*
X146505565Y-92800003D01*
X146505565Y-92799996D01*
X146485369Y-92620750D01*
X146485366Y-92620737D01*
X146425790Y-92450481D01*
X146425789Y-92450478D01*
X146387144Y-92388975D01*
X146369506Y-92360903D01*
X146350500Y-92294931D01*
X146350500Y-87619926D01*
X146325502Y-87494259D01*
X146325501Y-87494258D01*
X146325501Y-87494254D01*
X146307170Y-87449998D01*
X149694390Y-87449998D01*
X149694390Y-87450001D01*
X149714804Y-87735433D01*
X149775628Y-88015037D01*
X149775630Y-88015043D01*
X149775631Y-88015046D01*
X149853076Y-88222683D01*
X149875635Y-88283166D01*
X150012770Y-88534309D01*
X150012775Y-88534317D01*
X150184254Y-88763387D01*
X150184270Y-88763405D01*
X150386594Y-88965729D01*
X150386612Y-88965745D01*
X150615682Y-89137224D01*
X150615690Y-89137229D01*
X150866833Y-89274364D01*
X150866832Y-89274364D01*
X150866836Y-89274365D01*
X150866839Y-89274367D01*
X151134954Y-89374369D01*
X151134960Y-89374370D01*
X151134962Y-89374371D01*
X151414566Y-89435195D01*
X151414568Y-89435195D01*
X151414572Y-89435196D01*
X151668220Y-89453337D01*
X151699999Y-89455610D01*
X151700000Y-89455610D01*
X151700001Y-89455610D01*
X151728595Y-89453564D01*
X151985428Y-89435196D01*
X152042702Y-89422737D01*
X152265037Y-89374371D01*
X152265037Y-89374370D01*
X152265046Y-89374369D01*
X152533161Y-89274367D01*
X152784315Y-89137226D01*
X153013395Y-88965739D01*
X153215739Y-88763395D01*
X153387226Y-88534315D01*
X153524367Y-88283161D01*
X153624369Y-88015046D01*
X153685196Y-87735428D01*
X153705610Y-87450000D01*
X153685196Y-87164572D01*
X153676696Y-87125500D01*
X153624371Y-86884962D01*
X153624370Y-86884960D01*
X153624369Y-86884954D01*
X153524367Y-86616839D01*
X153482823Y-86540758D01*
X153387229Y-86365690D01*
X153387224Y-86365682D01*
X153215745Y-86136612D01*
X153215729Y-86136594D01*
X153013405Y-85934270D01*
X153013387Y-85934254D01*
X152784317Y-85762775D01*
X152784309Y-85762770D01*
X152533166Y-85625635D01*
X152533167Y-85625635D01*
X152412329Y-85580565D01*
X152265046Y-85525631D01*
X152265043Y-85525630D01*
X152265037Y-85525628D01*
X151985433Y-85464804D01*
X151700001Y-85444390D01*
X151699999Y-85444390D01*
X151414566Y-85464804D01*
X151134962Y-85525628D01*
X150866833Y-85625635D01*
X150615690Y-85762770D01*
X150615682Y-85762775D01*
X150386612Y-85934254D01*
X150386594Y-85934270D01*
X150184270Y-86136594D01*
X150184254Y-86136612D01*
X150012775Y-86365682D01*
X150012770Y-86365690D01*
X149875635Y-86616833D01*
X149775628Y-86884962D01*
X149714804Y-87164566D01*
X149694390Y-87449998D01*
X146307170Y-87449998D01*
X146276465Y-87375871D01*
X146276464Y-87375870D01*
X146276461Y-87375864D01*
X146205277Y-87269330D01*
X146166778Y-87230831D01*
X146114669Y-87178722D01*
X144981684Y-86045737D01*
X143629723Y-84693775D01*
X143596238Y-84632452D01*
X143594183Y-84619972D01*
X143593369Y-84612744D01*
X143533790Y-84442477D01*
X143518979Y-84418906D01*
X143475995Y-84350497D01*
X143437817Y-84289737D01*
X143410261Y-84262181D01*
X143376776Y-84200858D01*
X143381760Y-84131166D01*
X143423632Y-84075233D01*
X143489096Y-84050816D01*
X143497942Y-84050500D01*
X144864071Y-84050500D01*
X144948615Y-84033682D01*
X144989744Y-84025501D01*
X145108127Y-83976465D01*
X145116533Y-83970847D01*
X145118650Y-83969434D01*
X145166658Y-83937356D01*
X145214669Y-83905277D01*
X147282276Y-81837669D01*
X147353465Y-81731127D01*
X147402501Y-81612744D01*
X147403943Y-81605495D01*
X147410109Y-81574497D01*
X147427500Y-81487071D01*
X147427500Y-78445324D01*
X147447185Y-78378285D01*
X147485526Y-78340331D01*
X147502262Y-78329816D01*
X147629816Y-78202262D01*
X147725789Y-78049522D01*
X147785368Y-77879255D01*
X147787568Y-77859731D01*
X147805565Y-77700003D01*
X147805565Y-77699996D01*
X147785369Y-77520750D01*
X147785366Y-77520737D01*
X147723489Y-77343905D01*
X147725637Y-77343153D01*
X147716035Y-77284872D01*
X147724392Y-77256411D01*
X147723489Y-77256095D01*
X147785366Y-77079262D01*
X147785369Y-77079249D01*
X147805565Y-76900003D01*
X147805565Y-76899996D01*
X147785369Y-76720750D01*
X147785366Y-76720737D01*
X147723489Y-76543905D01*
X147725637Y-76543153D01*
X147716035Y-76484872D01*
X147724392Y-76456411D01*
X147723489Y-76456095D01*
X147785366Y-76279262D01*
X147785369Y-76279250D01*
X147798736Y-76160616D01*
X147825803Y-76096202D01*
X147883397Y-76056647D01*
X147921956Y-76050500D01*
X149334192Y-76050500D01*
X149401231Y-76070185D01*
X149421873Y-76086819D01*
X150690845Y-77355790D01*
X150724330Y-77417113D01*
X150726567Y-77455623D01*
X150724659Y-77474998D01*
X150724659Y-77474999D01*
X150730898Y-77538346D01*
X150717879Y-77606992D01*
X150669814Y-77657702D01*
X150607495Y-77674500D01*
X150501080Y-77674500D01*
X150356092Y-77703340D01*
X150356082Y-77703343D01*
X150219508Y-77759914D01*
X150219505Y-77759915D01*
X150219505Y-77759916D01*
X150184767Y-77783127D01*
X150184766Y-77783126D01*
X150096585Y-77842046D01*
X150096578Y-77842052D01*
X148967050Y-78971580D01*
X148967044Y-78971588D01*
X148917812Y-79045268D01*
X148917813Y-79045269D01*
X148884921Y-79094496D01*
X148884914Y-79094508D01*
X148828342Y-79231086D01*
X148828340Y-79231092D01*
X148799500Y-79376079D01*
X148799500Y-80887769D01*
X148779815Y-80954808D01*
X148763181Y-80975450D01*
X148491937Y-81246693D01*
X148455873Y-81269370D01*
X148456750Y-81271191D01*
X148450475Y-81274212D01*
X148297737Y-81370184D01*
X148170184Y-81497737D01*
X148074211Y-81650476D01*
X148014631Y-81820745D01*
X148014630Y-81820750D01*
X147994435Y-81999996D01*
X147994435Y-82000003D01*
X148014630Y-82179249D01*
X148014631Y-82179254D01*
X148074211Y-82349523D01*
X148170184Y-82502262D01*
X148297738Y-82629816D01*
X148450478Y-82725789D01*
X148620745Y-82785368D01*
X148620750Y-82785369D01*
X148799996Y-82805565D01*
X148800000Y-82805565D01*
X148800004Y-82805565D01*
X148979249Y-82785369D01*
X148979252Y-82785368D01*
X148979255Y-82785368D01*
X149149522Y-82725789D01*
X149302262Y-82629816D01*
X149429816Y-82502262D01*
X149525789Y-82349522D01*
X149525792Y-82349510D01*
X149528810Y-82343248D01*
X149530650Y-82344134D01*
X149553305Y-82308061D01*
X150132951Y-81728416D01*
X150172398Y-81669379D01*
X150226009Y-81624574D01*
X150295334Y-81615867D01*
X150358362Y-81646021D01*
X150395082Y-81705464D01*
X150399500Y-81738270D01*
X150399500Y-83865891D01*
X150433608Y-83993187D01*
X150466554Y-84050250D01*
X150499500Y-84107314D01*
X150592686Y-84200500D01*
X150706814Y-84266392D01*
X150834108Y-84300500D01*
X154725500Y-84300500D01*
X154792539Y-84320185D01*
X154838294Y-84372989D01*
X154849500Y-84424500D01*
X154849500Y-90475500D01*
X154829815Y-90542539D01*
X154777011Y-90588294D01*
X154725500Y-90599500D01*
X150834108Y-90599500D01*
X150706812Y-90633608D01*
X150592686Y-90699500D01*
X150592683Y-90699502D01*
X150499502Y-90792683D01*
X150499500Y-90792686D01*
X150433608Y-90906812D01*
X150399500Y-91034108D01*
X150399500Y-95275500D01*
X150379815Y-95342539D01*
X150327011Y-95388294D01*
X150275500Y-95399500D01*
X120624500Y-95399500D01*
X120557461Y-95379815D01*
X120511706Y-95327011D01*
X120500500Y-95275500D01*
X120500500Y-94324986D01*
X120750001Y-94324986D01*
X120760494Y-94427697D01*
X120815641Y-94594119D01*
X120815643Y-94594124D01*
X120907684Y-94743345D01*
X121031654Y-94867315D01*
X121180875Y-94959356D01*
X121180880Y-94959358D01*
X121347302Y-95014505D01*
X121347309Y-95014506D01*
X121450019Y-95024999D01*
X121999999Y-95024999D01*
X122500000Y-95024999D01*
X123049972Y-95024999D01*
X123049986Y-95024998D01*
X123152697Y-95014505D01*
X123319119Y-94959358D01*
X123319124Y-94959356D01*
X123468345Y-94867315D01*
X123592315Y-94743345D01*
X123684356Y-94594124D01*
X123684358Y-94594119D01*
X123739505Y-94427697D01*
X123739506Y-94427690D01*
X123749999Y-94324986D01*
X123750000Y-94324973D01*
X123750000Y-94125000D01*
X122500000Y-94125000D01*
X122500000Y-95024999D01*
X121999999Y-95024999D01*
X122000000Y-95024998D01*
X122000000Y-94125000D01*
X120750001Y-94125000D01*
X120750001Y-94324986D01*
X120500500Y-94324986D01*
X120500500Y-88724986D01*
X120750001Y-88724986D01*
X120760494Y-88827697D01*
X120815641Y-88994119D01*
X120815643Y-88994124D01*
X120907684Y-89143345D01*
X121031654Y-89267315D01*
X121180875Y-89359356D01*
X121180880Y-89359358D01*
X121347302Y-89414505D01*
X121347309Y-89414506D01*
X121450019Y-89424999D01*
X121999999Y-89424999D01*
X122000000Y-89424998D01*
X122000000Y-88525000D01*
X120750001Y-88525000D01*
X120750001Y-88724986D01*
X120500500Y-88724986D01*
X120500500Y-84574500D01*
X120520185Y-84507461D01*
X120572989Y-84461706D01*
X120624500Y-84450500D01*
X128565890Y-84450500D01*
X128565892Y-84450500D01*
X128693186Y-84416392D01*
X128807314Y-84350500D01*
X128900500Y-84257314D01*
X128966392Y-84143186D01*
X129000500Y-84015892D01*
X129000500Y-79784108D01*
X128966392Y-79656814D01*
X128900500Y-79542686D01*
X128807314Y-79449500D01*
X128750250Y-79416554D01*
X128693187Y-79383608D01*
X128629539Y-79366554D01*
X128565892Y-79349500D01*
X128565891Y-79349500D01*
X124674500Y-79349500D01*
X124607461Y-79329815D01*
X124561706Y-79277011D01*
X124550500Y-79225500D01*
X124550500Y-76199998D01*
X125694390Y-76199998D01*
X125694390Y-76200001D01*
X125714804Y-76485433D01*
X125775628Y-76765037D01*
X125775630Y-76765043D01*
X125775631Y-76765046D01*
X125874847Y-77031054D01*
X125875635Y-77033166D01*
X126012770Y-77284309D01*
X126012775Y-77284317D01*
X126184254Y-77513387D01*
X126184270Y-77513405D01*
X126386594Y-77715729D01*
X126386612Y-77715745D01*
X126615682Y-77887224D01*
X126615690Y-77887229D01*
X126866833Y-78024364D01*
X126866832Y-78024364D01*
X126866836Y-78024365D01*
X126866839Y-78024367D01*
X127134954Y-78124369D01*
X127134960Y-78124370D01*
X127134962Y-78124371D01*
X127414566Y-78185195D01*
X127414568Y-78185195D01*
X127414572Y-78185196D01*
X127668220Y-78203337D01*
X127699999Y-78205610D01*
X127700000Y-78205610D01*
X127700001Y-78205610D01*
X127728595Y-78203564D01*
X127985428Y-78185196D01*
X128265046Y-78124369D01*
X128533161Y-78024367D01*
X128784315Y-77887226D01*
X129013395Y-77715739D01*
X129215739Y-77513395D01*
X129387226Y-77284315D01*
X129524367Y-77033161D01*
X129624369Y-76765046D01*
X129685196Y-76485428D01*
X129705610Y-76200000D01*
X129685196Y-75914572D01*
X129624369Y-75634954D01*
X129524367Y-75366839D01*
X129446995Y-75225144D01*
X129387229Y-75115690D01*
X129387224Y-75115682D01*
X129215745Y-74886612D01*
X129215729Y-74886594D01*
X129013405Y-74684270D01*
X129013387Y-74684254D01*
X128784317Y-74512775D01*
X128784309Y-74512770D01*
X128533166Y-74375635D01*
X128533167Y-74375635D01*
X128425915Y-74335632D01*
X128265046Y-74275631D01*
X128265043Y-74275630D01*
X128265037Y-74275628D01*
X127985433Y-74214804D01*
X127700001Y-74194390D01*
X127699999Y-74194390D01*
X127414566Y-74214804D01*
X127134962Y-74275628D01*
X126866833Y-74375635D01*
X126615690Y-74512770D01*
X126615682Y-74512775D01*
X126386612Y-74684254D01*
X126386594Y-74684270D01*
X126184270Y-74886594D01*
X126184254Y-74886612D01*
X126012775Y-75115682D01*
X126012770Y-75115690D01*
X125875635Y-75366833D01*
X125775628Y-75634962D01*
X125714804Y-75914566D01*
X125694390Y-76199998D01*
X124550500Y-76199998D01*
X124550500Y-73174500D01*
X124570185Y-73107461D01*
X124622989Y-73061706D01*
X124674500Y-73050500D01*
X128565890Y-73050500D01*
X128565892Y-73050500D01*
X128693186Y-73016392D01*
X128807314Y-72950500D01*
X128900500Y-72857314D01*
X128966392Y-72743186D01*
X129000500Y-72615892D01*
X129000500Y-68384108D01*
X128966392Y-68256814D01*
X128900500Y-68142686D01*
X128807314Y-68049500D01*
X128750250Y-68016554D01*
X128693187Y-67983608D01*
X128629539Y-67966554D01*
X128565892Y-67949500D01*
X128565891Y-67949500D01*
X120624500Y-67949500D01*
X120557461Y-67929815D01*
X120511706Y-67877011D01*
X120500500Y-67825500D01*
X120500500Y-64949998D01*
X149694390Y-64949998D01*
X149694390Y-64950001D01*
X149714804Y-65235433D01*
X149775628Y-65515037D01*
X149875635Y-65783166D01*
X150012770Y-66034309D01*
X150012775Y-66034317D01*
X150184254Y-66263387D01*
X150184270Y-66263405D01*
X150386594Y-66465729D01*
X150386612Y-66465745D01*
X150615682Y-66637224D01*
X150615690Y-66637229D01*
X150866833Y-66774364D01*
X150866832Y-66774364D01*
X150866836Y-66774365D01*
X150866839Y-66774367D01*
X151134954Y-66874369D01*
X151134960Y-66874370D01*
X151134962Y-66874371D01*
X151414566Y-66935195D01*
X151414568Y-66935195D01*
X151414572Y-66935196D01*
X151668220Y-66953337D01*
X151699999Y-66955610D01*
X151700000Y-66955610D01*
X151700001Y-66955610D01*
X151728595Y-66953564D01*
X151985428Y-66935196D01*
X152265046Y-66874369D01*
X152533161Y-66774367D01*
X152784315Y-66637226D01*
X153013395Y-66465739D01*
X153215739Y-66263395D01*
X153387226Y-66034315D01*
X153524367Y-65783161D01*
X153624369Y-65515046D01*
X153685196Y-65235428D01*
X153705610Y-64950000D01*
X153685196Y-64664572D01*
X153624369Y-64384954D01*
X153524367Y-64116839D01*
X153444025Y-63969705D01*
X153387229Y-63865690D01*
X153387224Y-63865682D01*
X153215745Y-63636612D01*
X153215729Y-63636594D01*
X153013405Y-63434270D01*
X153013387Y-63434254D01*
X152784317Y-63262775D01*
X152784309Y-63262770D01*
X152533166Y-63125635D01*
X152533167Y-63125635D01*
X152425915Y-63085632D01*
X152265046Y-63025631D01*
X152265043Y-63025630D01*
X152265037Y-63025628D01*
X151985433Y-62964804D01*
X151700001Y-62944390D01*
X151699999Y-62944390D01*
X151414566Y-62964804D01*
X151134962Y-63025628D01*
X150866833Y-63125635D01*
X150615690Y-63262770D01*
X150615682Y-63262775D01*
X150386612Y-63434254D01*
X150386594Y-63434270D01*
X150184270Y-63636594D01*
X150184254Y-63636612D01*
X150012775Y-63865682D01*
X150012770Y-63865690D01*
X149875635Y-64116833D01*
X149775628Y-64384962D01*
X149714804Y-64664566D01*
X149694390Y-64949998D01*
X120500500Y-64949998D01*
X120500500Y-59949983D01*
X134899500Y-59949983D01*
X134899500Y-61500001D01*
X134899501Y-61500018D01*
X134910000Y-61602796D01*
X134910001Y-61602799D01*
X134944031Y-61705493D01*
X134965186Y-61769334D01*
X135057288Y-61918656D01*
X135181344Y-62042712D01*
X135330666Y-62134814D01*
X135497203Y-62189999D01*
X135599991Y-62200500D01*
X136900008Y-62200499D01*
X137002797Y-62189999D01*
X137169334Y-62134814D01*
X137318656Y-62042712D01*
X137442712Y-61918656D01*
X137534814Y-61769334D01*
X137534814Y-61769331D01*
X137538448Y-61763441D01*
X137590395Y-61716716D01*
X137659358Y-61705493D01*
X137723440Y-61733336D01*
X137731668Y-61740856D01*
X137870535Y-61879723D01*
X137870540Y-61879727D01*
X138042442Y-62004620D01*
X138231782Y-62101095D01*
X138433871Y-62166757D01*
X138500000Y-62177231D01*
X138500000Y-61129145D01*
X138566657Y-61167630D01*
X138687465Y-61200000D01*
X138812535Y-61200000D01*
X138933343Y-61167630D01*
X139000000Y-61129145D01*
X139000000Y-62177230D01*
X139066126Y-62166757D01*
X139066129Y-62166757D01*
X139268217Y-62101095D01*
X139457557Y-62004620D01*
X139629459Y-61879727D01*
X139629464Y-61879723D01*
X139779721Y-61729466D01*
X139899371Y-61564781D01*
X139954701Y-61522115D01*
X140024314Y-61516136D01*
X140086110Y-61548741D01*
X140100008Y-61564781D01*
X140219890Y-61729785D01*
X140219894Y-61729790D01*
X140370213Y-61880109D01*
X140542179Y-62005048D01*
X140542181Y-62005049D01*
X140542184Y-62005051D01*
X140731588Y-62101557D01*
X140933757Y-62167246D01*
X141143713Y-62200500D01*
X141143714Y-62200500D01*
X141356286Y-62200500D01*
X141356287Y-62200500D01*
X141566243Y-62167246D01*
X141768412Y-62101557D01*
X141957816Y-62005051D01*
X142068686Y-61924500D01*
X142129786Y-61880109D01*
X142129788Y-61880106D01*
X142129792Y-61880104D01*
X142280104Y-61729792D01*
X142399683Y-61565204D01*
X142455011Y-61522540D01*
X142524624Y-61516561D01*
X142586420Y-61549166D01*
X142600313Y-61565199D01*
X142630913Y-61607316D01*
X142719896Y-61729792D01*
X142870213Y-61880109D01*
X143042179Y-62005048D01*
X143042181Y-62005049D01*
X143042184Y-62005051D01*
X143231588Y-62101557D01*
X143433757Y-62167246D01*
X143643713Y-62200500D01*
X143643714Y-62200500D01*
X143856286Y-62200500D01*
X143856287Y-62200500D01*
X144066243Y-62167246D01*
X144268412Y-62101557D01*
X144457816Y-62005051D01*
X144568686Y-61924500D01*
X144629786Y-61880109D01*
X144629788Y-61880106D01*
X144629792Y-61880104D01*
X144780104Y-61729792D01*
X144780106Y-61729788D01*
X144780109Y-61729786D01*
X144905048Y-61557820D01*
X144905047Y-61557820D01*
X144905051Y-61557816D01*
X145001557Y-61368412D01*
X145067246Y-61166243D01*
X145100500Y-60956287D01*
X145100500Y-60493713D01*
X145067246Y-60283757D01*
X145001557Y-60081588D01*
X144905051Y-59892184D01*
X144905049Y-59892181D01*
X144905048Y-59892179D01*
X144780109Y-59720213D01*
X144629786Y-59569890D01*
X144457820Y-59444951D01*
X144268414Y-59348444D01*
X144268413Y-59348443D01*
X144268412Y-59348443D01*
X144066243Y-59282754D01*
X144066241Y-59282753D01*
X144066240Y-59282753D01*
X143904957Y-59257208D01*
X143856287Y-59249500D01*
X143643713Y-59249500D01*
X143595042Y-59257208D01*
X143433760Y-59282753D01*
X143231585Y-59348444D01*
X143042179Y-59444951D01*
X142870213Y-59569890D01*
X142719894Y-59720209D01*
X142719890Y-59720214D01*
X142600318Y-59884793D01*
X142544989Y-59927459D01*
X142475375Y-59933438D01*
X142413580Y-59900833D01*
X142399682Y-59884793D01*
X142280109Y-59720214D01*
X142280105Y-59720209D01*
X142129786Y-59569890D01*
X141957820Y-59444951D01*
X141768414Y-59348444D01*
X141768413Y-59348443D01*
X141768412Y-59348443D01*
X141566243Y-59282754D01*
X141566241Y-59282753D01*
X141566240Y-59282753D01*
X141404957Y-59257208D01*
X141356287Y-59249500D01*
X141143713Y-59249500D01*
X141095042Y-59257208D01*
X140933760Y-59282753D01*
X140731585Y-59348444D01*
X140542179Y-59444951D01*
X140370213Y-59569890D01*
X140219894Y-59720209D01*
X140219890Y-59720214D01*
X140100008Y-59885218D01*
X140044678Y-59927884D01*
X139975065Y-59933863D01*
X139913270Y-59901257D01*
X139899372Y-59885218D01*
X139779727Y-59720540D01*
X139779723Y-59720535D01*
X139629464Y-59570276D01*
X139629459Y-59570272D01*
X139457557Y-59445379D01*
X139268215Y-59348903D01*
X139066124Y-59283241D01*
X139000000Y-59272768D01*
X139000000Y-60320854D01*
X138933343Y-60282370D01*
X138812535Y-60250000D01*
X138687465Y-60250000D01*
X138566657Y-60282370D01*
X138500000Y-60320854D01*
X138500000Y-59272768D01*
X138499999Y-59272768D01*
X138433875Y-59283241D01*
X138231784Y-59348903D01*
X138042442Y-59445379D01*
X137870541Y-59570271D01*
X137731668Y-59709144D01*
X137670345Y-59742628D01*
X137600653Y-59737644D01*
X137544720Y-59695772D01*
X137538448Y-59686558D01*
X137442712Y-59531344D01*
X137318657Y-59407289D01*
X137318656Y-59407288D01*
X137169334Y-59315186D01*
X137002797Y-59260001D01*
X137002795Y-59260000D01*
X136900010Y-59249500D01*
X135599998Y-59249500D01*
X135599981Y-59249501D01*
X135497203Y-59260000D01*
X135497200Y-59260001D01*
X135330668Y-59315185D01*
X135330663Y-59315187D01*
X135181342Y-59407289D01*
X135057289Y-59531342D01*
X134965187Y-59680663D01*
X134965185Y-59680668D01*
X134960180Y-59695772D01*
X134910001Y-59847203D01*
X134910001Y-59847204D01*
X134910000Y-59847204D01*
X134899500Y-59949983D01*
X120500500Y-59949983D01*
X120500500Y-57124500D01*
X120520185Y-57057461D01*
X120572989Y-57011706D01*
X120624500Y-57000500D01*
X150275500Y-57000500D01*
X150342539Y-57020185D01*
G37*
%TD.AperFunction*%
%TD*%
M02*
