%TF.GenerationSoftware,KiCad,Pcbnew,8.0.4*%
%TF.CreationDate,2024-08-09T19:06:39+02:00*%
%TF.ProjectId,Water Tank Monitor,57617465-7220-4546-916e-6b204d6f6e69,rev?*%
%TF.SameCoordinates,Original*%
%TF.FileFunction,Legend,Bot*%
%TF.FilePolarity,Positive*%
%FSLAX46Y46*%
G04 Gerber Fmt 4.6, Leading zero omitted, Abs format (unit mm)*
G04 Created by KiCad (PCBNEW 8.0.4) date 2024-08-09 19:06:39*
%MOMM*%
%LPD*%
G01*
G04 APERTURE LIST*
G04 Aperture macros list*
%AMRoundRect*
0 Rectangle with rounded corners*
0 $1 Rounding radius*
0 $2 $3 $4 $5 $6 $7 $8 $9 X,Y pos of 4 corners*
0 Add a 4 corners polygon primitive as box body*
4,1,4,$2,$3,$4,$5,$6,$7,$8,$9,$2,$3,0*
0 Add four circle primitives for the rounded corners*
1,1,$1+$1,$2,$3*
1,1,$1+$1,$4,$5*
1,1,$1+$1,$6,$7*
1,1,$1+$1,$8,$9*
0 Add four rect primitives between the rounded corners*
20,1,$1+$1,$2,$3,$4,$5,0*
20,1,$1+$1,$4,$5,$6,$7,0*
20,1,$1+$1,$6,$7,$8,$9,0*
20,1,$1+$1,$8,$9,$2,$3,0*%
G04 Aperture macros list end*
%ADD10C,0.150000*%
%ADD11C,0.120000*%
%ADD12C,1.000000*%
%ADD13RoundRect,0.250000X-0.600000X-0.725000X0.600000X-0.725000X0.600000X0.725000X-0.600000X0.725000X0*%
%ADD14O,1.700000X1.950000*%
%ADD15RoundRect,0.250000X-0.750000X0.400000X-0.750000X-0.400000X0.750000X-0.400000X0.750000X0.400000X0*%
%ADD16RoundRect,0.250000X-0.750000X0.750000X-0.750000X-0.750000X0.750000X-0.750000X0.750000X0.750000X0*%
G04 APERTURE END LIST*
D10*
X134979637Y-93907200D02*
X135074875Y-93954819D01*
X135074875Y-93954819D02*
X135265351Y-93954819D01*
X135265351Y-93954819D02*
X135360589Y-93907200D01*
X135360589Y-93907200D02*
X135408208Y-93859580D01*
X135408208Y-93859580D02*
X135455827Y-93764342D01*
X135455827Y-93764342D02*
X135455827Y-93478628D01*
X135455827Y-93478628D02*
X135408208Y-93383390D01*
X135408208Y-93383390D02*
X135360589Y-93335771D01*
X135360589Y-93335771D02*
X135265351Y-93288152D01*
X135265351Y-93288152D02*
X135074875Y-93288152D01*
X135074875Y-93288152D02*
X134979637Y-93335771D01*
X134122494Y-93954819D02*
X134122494Y-93431009D01*
X134122494Y-93431009D02*
X134170113Y-93335771D01*
X134170113Y-93335771D02*
X134265351Y-93288152D01*
X134265351Y-93288152D02*
X134455827Y-93288152D01*
X134455827Y-93288152D02*
X134551065Y-93335771D01*
X134122494Y-93907200D02*
X134217732Y-93954819D01*
X134217732Y-93954819D02*
X134455827Y-93954819D01*
X134455827Y-93954819D02*
X134551065Y-93907200D01*
X134551065Y-93907200D02*
X134598684Y-93811961D01*
X134598684Y-93811961D02*
X134598684Y-93716723D01*
X134598684Y-93716723D02*
X134551065Y-93621485D01*
X134551065Y-93621485D02*
X134455827Y-93573866D01*
X134455827Y-93573866D02*
X134217732Y-93573866D01*
X134217732Y-93573866D02*
X134122494Y-93526247D01*
X133503446Y-93954819D02*
X133598684Y-93907200D01*
X133598684Y-93907200D02*
X133646303Y-93811961D01*
X133646303Y-93811961D02*
X133646303Y-92954819D01*
X133122493Y-93954819D02*
X133122493Y-93288152D01*
X133122493Y-92954819D02*
X133170112Y-93002438D01*
X133170112Y-93002438D02*
X133122493Y-93050057D01*
X133122493Y-93050057D02*
X133074874Y-93002438D01*
X133074874Y-93002438D02*
X133122493Y-92954819D01*
X133122493Y-92954819D02*
X133122493Y-93050057D01*
X132646303Y-93954819D02*
X132646303Y-92954819D01*
X132646303Y-93335771D02*
X132551065Y-93288152D01*
X132551065Y-93288152D02*
X132360589Y-93288152D01*
X132360589Y-93288152D02*
X132265351Y-93335771D01*
X132265351Y-93335771D02*
X132217732Y-93383390D01*
X132217732Y-93383390D02*
X132170113Y-93478628D01*
X132170113Y-93478628D02*
X132170113Y-93764342D01*
X132170113Y-93764342D02*
X132217732Y-93859580D01*
X132217732Y-93859580D02*
X132265351Y-93907200D01*
X132265351Y-93907200D02*
X132360589Y-93954819D01*
X132360589Y-93954819D02*
X132551065Y-93954819D01*
X132551065Y-93954819D02*
X132646303Y-93907200D01*
X131741541Y-93954819D02*
X131741541Y-93288152D01*
X131741541Y-93478628D02*
X131693922Y-93383390D01*
X131693922Y-93383390D02*
X131646303Y-93335771D01*
X131646303Y-93335771D02*
X131551065Y-93288152D01*
X131551065Y-93288152D02*
X131455827Y-93288152D01*
X130693922Y-93954819D02*
X130693922Y-93431009D01*
X130693922Y-93431009D02*
X130741541Y-93335771D01*
X130741541Y-93335771D02*
X130836779Y-93288152D01*
X130836779Y-93288152D02*
X131027255Y-93288152D01*
X131027255Y-93288152D02*
X131122493Y-93335771D01*
X130693922Y-93907200D02*
X130789160Y-93954819D01*
X130789160Y-93954819D02*
X131027255Y-93954819D01*
X131027255Y-93954819D02*
X131122493Y-93907200D01*
X131122493Y-93907200D02*
X131170112Y-93811961D01*
X131170112Y-93811961D02*
X131170112Y-93716723D01*
X131170112Y-93716723D02*
X131122493Y-93621485D01*
X131122493Y-93621485D02*
X131027255Y-93573866D01*
X131027255Y-93573866D02*
X130789160Y-93573866D01*
X130789160Y-93573866D02*
X130693922Y-93526247D01*
X130360588Y-93288152D02*
X129979636Y-93288152D01*
X130217731Y-92954819D02*
X130217731Y-93811961D01*
X130217731Y-93811961D02*
X130170112Y-93907200D01*
X130170112Y-93907200D02*
X130074874Y-93954819D01*
X130074874Y-93954819D02*
X129979636Y-93954819D01*
X129646302Y-93954819D02*
X129646302Y-93288152D01*
X129646302Y-92954819D02*
X129693921Y-93002438D01*
X129693921Y-93002438D02*
X129646302Y-93050057D01*
X129646302Y-93050057D02*
X129598683Y-93002438D01*
X129598683Y-93002438D02*
X129646302Y-92954819D01*
X129646302Y-92954819D02*
X129646302Y-93050057D01*
X129027255Y-93954819D02*
X129122493Y-93907200D01*
X129122493Y-93907200D02*
X129170112Y-93859580D01*
X129170112Y-93859580D02*
X129217731Y-93764342D01*
X129217731Y-93764342D02*
X129217731Y-93478628D01*
X129217731Y-93478628D02*
X129170112Y-93383390D01*
X129170112Y-93383390D02*
X129122493Y-93335771D01*
X129122493Y-93335771D02*
X129027255Y-93288152D01*
X129027255Y-93288152D02*
X128884398Y-93288152D01*
X128884398Y-93288152D02*
X128789160Y-93335771D01*
X128789160Y-93335771D02*
X128741541Y-93383390D01*
X128741541Y-93383390D02*
X128693922Y-93478628D01*
X128693922Y-93478628D02*
X128693922Y-93764342D01*
X128693922Y-93764342D02*
X128741541Y-93859580D01*
X128741541Y-93859580D02*
X128789160Y-93907200D01*
X128789160Y-93907200D02*
X128884398Y-93954819D01*
X128884398Y-93954819D02*
X129027255Y-93954819D01*
X128265350Y-93288152D02*
X128265350Y-93954819D01*
X128265350Y-93383390D02*
X128217731Y-93335771D01*
X128217731Y-93335771D02*
X128122493Y-93288152D01*
X128122493Y-93288152D02*
X127979636Y-93288152D01*
X127979636Y-93288152D02*
X127884398Y-93335771D01*
X127884398Y-93335771D02*
X127836779Y-93431009D01*
X127836779Y-93431009D02*
X127836779Y-93954819D01*
X135122494Y-88454819D02*
X135122494Y-87454819D01*
X135122494Y-87835771D02*
X135027256Y-87788152D01*
X135027256Y-87788152D02*
X134836780Y-87788152D01*
X134836780Y-87788152D02*
X134741542Y-87835771D01*
X134741542Y-87835771D02*
X134693923Y-87883390D01*
X134693923Y-87883390D02*
X134646304Y-87978628D01*
X134646304Y-87978628D02*
X134646304Y-88264342D01*
X134646304Y-88264342D02*
X134693923Y-88359580D01*
X134693923Y-88359580D02*
X134741542Y-88407200D01*
X134741542Y-88407200D02*
X134836780Y-88454819D01*
X134836780Y-88454819D02*
X135027256Y-88454819D01*
X135027256Y-88454819D02*
X135122494Y-88407200D01*
X134217732Y-88454819D02*
X134217732Y-87788152D01*
X134217732Y-87978628D02*
X134170113Y-87883390D01*
X134170113Y-87883390D02*
X134122494Y-87835771D01*
X134122494Y-87835771D02*
X134027256Y-87788152D01*
X134027256Y-87788152D02*
X133932018Y-87788152D01*
X133598684Y-88454819D02*
X133598684Y-87788152D01*
X133598684Y-87454819D02*
X133646303Y-87502438D01*
X133646303Y-87502438D02*
X133598684Y-87550057D01*
X133598684Y-87550057D02*
X133551065Y-87502438D01*
X133551065Y-87502438D02*
X133598684Y-87454819D01*
X133598684Y-87454819D02*
X133598684Y-87550057D01*
X132693923Y-87788152D02*
X132693923Y-88597676D01*
X132693923Y-88597676D02*
X132741542Y-88692914D01*
X132741542Y-88692914D02*
X132789161Y-88740533D01*
X132789161Y-88740533D02*
X132884399Y-88788152D01*
X132884399Y-88788152D02*
X133027256Y-88788152D01*
X133027256Y-88788152D02*
X133122494Y-88740533D01*
X132693923Y-88407200D02*
X132789161Y-88454819D01*
X132789161Y-88454819D02*
X132979637Y-88454819D01*
X132979637Y-88454819D02*
X133074875Y-88407200D01*
X133074875Y-88407200D02*
X133122494Y-88359580D01*
X133122494Y-88359580D02*
X133170113Y-88264342D01*
X133170113Y-88264342D02*
X133170113Y-87978628D01*
X133170113Y-87978628D02*
X133122494Y-87883390D01*
X133122494Y-87883390D02*
X133074875Y-87835771D01*
X133074875Y-87835771D02*
X132979637Y-87788152D01*
X132979637Y-87788152D02*
X132789161Y-87788152D01*
X132789161Y-87788152D02*
X132693923Y-87835771D01*
X132217732Y-88454819D02*
X132217732Y-87454819D01*
X131789161Y-88454819D02*
X131789161Y-87931009D01*
X131789161Y-87931009D02*
X131836780Y-87835771D01*
X131836780Y-87835771D02*
X131932018Y-87788152D01*
X131932018Y-87788152D02*
X132074875Y-87788152D01*
X132074875Y-87788152D02*
X132170113Y-87835771D01*
X132170113Y-87835771D02*
X132217732Y-87883390D01*
X131455827Y-87788152D02*
X131074875Y-87788152D01*
X131312970Y-87454819D02*
X131312970Y-88311961D01*
X131312970Y-88311961D02*
X131265351Y-88407200D01*
X131265351Y-88407200D02*
X131170113Y-88454819D01*
X131170113Y-88454819D02*
X131074875Y-88454819D01*
X130741541Y-87788152D02*
X130741541Y-88454819D01*
X130741541Y-87883390D02*
X130693922Y-87835771D01*
X130693922Y-87835771D02*
X130598684Y-87788152D01*
X130598684Y-87788152D02*
X130455827Y-87788152D01*
X130455827Y-87788152D02*
X130360589Y-87835771D01*
X130360589Y-87835771D02*
X130312970Y-87931009D01*
X130312970Y-87931009D02*
X130312970Y-88454819D01*
X129455827Y-88407200D02*
X129551065Y-88454819D01*
X129551065Y-88454819D02*
X129741541Y-88454819D01*
X129741541Y-88454819D02*
X129836779Y-88407200D01*
X129836779Y-88407200D02*
X129884398Y-88311961D01*
X129884398Y-88311961D02*
X129884398Y-87931009D01*
X129884398Y-87931009D02*
X129836779Y-87835771D01*
X129836779Y-87835771D02*
X129741541Y-87788152D01*
X129741541Y-87788152D02*
X129551065Y-87788152D01*
X129551065Y-87788152D02*
X129455827Y-87835771D01*
X129455827Y-87835771D02*
X129408208Y-87931009D01*
X129408208Y-87931009D02*
X129408208Y-88026247D01*
X129408208Y-88026247D02*
X129884398Y-88121485D01*
X129027255Y-88407200D02*
X128932017Y-88454819D01*
X128932017Y-88454819D02*
X128741541Y-88454819D01*
X128741541Y-88454819D02*
X128646303Y-88407200D01*
X128646303Y-88407200D02*
X128598684Y-88311961D01*
X128598684Y-88311961D02*
X128598684Y-88264342D01*
X128598684Y-88264342D02*
X128646303Y-88169104D01*
X128646303Y-88169104D02*
X128741541Y-88121485D01*
X128741541Y-88121485D02*
X128884398Y-88121485D01*
X128884398Y-88121485D02*
X128979636Y-88073866D01*
X128979636Y-88073866D02*
X129027255Y-87978628D01*
X129027255Y-87978628D02*
X129027255Y-87931009D01*
X129027255Y-87931009D02*
X128979636Y-87835771D01*
X128979636Y-87835771D02*
X128884398Y-87788152D01*
X128884398Y-87788152D02*
X128741541Y-87788152D01*
X128741541Y-87788152D02*
X128646303Y-87835771D01*
X128217731Y-88407200D02*
X128122493Y-88454819D01*
X128122493Y-88454819D02*
X127932017Y-88454819D01*
X127932017Y-88454819D02*
X127836779Y-88407200D01*
X127836779Y-88407200D02*
X127789160Y-88311961D01*
X127789160Y-88311961D02*
X127789160Y-88264342D01*
X127789160Y-88264342D02*
X127836779Y-88169104D01*
X127836779Y-88169104D02*
X127932017Y-88121485D01*
X127932017Y-88121485D02*
X128074874Y-88121485D01*
X128074874Y-88121485D02*
X128170112Y-88073866D01*
X128170112Y-88073866D02*
X128217731Y-87978628D01*
X128217731Y-87978628D02*
X128217731Y-87931009D01*
X128217731Y-87931009D02*
X128170112Y-87835771D01*
X128170112Y-87835771D02*
X128074874Y-87788152D01*
X128074874Y-87788152D02*
X127932017Y-87788152D01*
X127932017Y-87788152D02*
X127836779Y-87835771D01*
X149877506Y-74204819D02*
X149877506Y-74919104D01*
X149877506Y-74919104D02*
X149925125Y-75061961D01*
X149925125Y-75061961D02*
X150020363Y-75157200D01*
X150020363Y-75157200D02*
X150163220Y-75204819D01*
X150163220Y-75204819D02*
X150258458Y-75204819D01*
X148972744Y-74204819D02*
X149163220Y-74204819D01*
X149163220Y-74204819D02*
X149258458Y-74252438D01*
X149258458Y-74252438D02*
X149306077Y-74300057D01*
X149306077Y-74300057D02*
X149401315Y-74442914D01*
X149401315Y-74442914D02*
X149448934Y-74633390D01*
X149448934Y-74633390D02*
X149448934Y-75014342D01*
X149448934Y-75014342D02*
X149401315Y-75109580D01*
X149401315Y-75109580D02*
X149353696Y-75157200D01*
X149353696Y-75157200D02*
X149258458Y-75204819D01*
X149258458Y-75204819D02*
X149067982Y-75204819D01*
X149067982Y-75204819D02*
X148972744Y-75157200D01*
X148972744Y-75157200D02*
X148925125Y-75109580D01*
X148925125Y-75109580D02*
X148877506Y-75014342D01*
X148877506Y-75014342D02*
X148877506Y-74776247D01*
X148877506Y-74776247D02*
X148925125Y-74681009D01*
X148925125Y-74681009D02*
X148972744Y-74633390D01*
X148972744Y-74633390D02*
X149067982Y-74585771D01*
X149067982Y-74585771D02*
X149258458Y-74585771D01*
X149258458Y-74585771D02*
X149353696Y-74633390D01*
X149353696Y-74633390D02*
X149401315Y-74681009D01*
X149401315Y-74681009D02*
X149448934Y-74776247D01*
X149829887Y-76181009D02*
X150163220Y-76181009D01*
X150163220Y-76704819D02*
X150163220Y-75704819D01*
X150163220Y-75704819D02*
X149687030Y-75704819D01*
X149448934Y-75704819D02*
X148877506Y-75704819D01*
X149163220Y-76704819D02*
X149163220Y-75704819D01*
X148544172Y-76704819D02*
X148544172Y-75704819D01*
X148544172Y-75704819D02*
X148306077Y-75704819D01*
X148306077Y-75704819D02*
X148163220Y-75752438D01*
X148163220Y-75752438D02*
X148067982Y-75847676D01*
X148067982Y-75847676D02*
X148020363Y-75942914D01*
X148020363Y-75942914D02*
X147972744Y-76133390D01*
X147972744Y-76133390D02*
X147972744Y-76276247D01*
X147972744Y-76276247D02*
X148020363Y-76466723D01*
X148020363Y-76466723D02*
X148067982Y-76561961D01*
X148067982Y-76561961D02*
X148163220Y-76657200D01*
X148163220Y-76657200D02*
X148306077Y-76704819D01*
X148306077Y-76704819D02*
X148544172Y-76704819D01*
X147544172Y-76704819D02*
X147544172Y-75704819D01*
X129598684Y-92704819D02*
X129932017Y-92228628D01*
X130170112Y-92704819D02*
X130170112Y-91704819D01*
X130170112Y-91704819D02*
X129789160Y-91704819D01*
X129789160Y-91704819D02*
X129693922Y-91752438D01*
X129693922Y-91752438D02*
X129646303Y-91800057D01*
X129646303Y-91800057D02*
X129598684Y-91895295D01*
X129598684Y-91895295D02*
X129598684Y-92038152D01*
X129598684Y-92038152D02*
X129646303Y-92133390D01*
X129646303Y-92133390D02*
X129693922Y-92181009D01*
X129693922Y-92181009D02*
X129789160Y-92228628D01*
X129789160Y-92228628D02*
X130170112Y-92228628D01*
X129312969Y-91704819D02*
X128979636Y-92704819D01*
X128979636Y-92704819D02*
X128646303Y-91704819D01*
X127789160Y-92704819D02*
X128360588Y-92704819D01*
X128074874Y-92704819D02*
X128074874Y-91704819D01*
X128074874Y-91704819D02*
X128170112Y-91847676D01*
X128170112Y-91847676D02*
X128265350Y-91942914D01*
X128265350Y-91942914D02*
X128360588Y-91990533D01*
X129598684Y-87204819D02*
X129932017Y-86728628D01*
X130170112Y-87204819D02*
X130170112Y-86204819D01*
X130170112Y-86204819D02*
X129789160Y-86204819D01*
X129789160Y-86204819D02*
X129693922Y-86252438D01*
X129693922Y-86252438D02*
X129646303Y-86300057D01*
X129646303Y-86300057D02*
X129598684Y-86395295D01*
X129598684Y-86395295D02*
X129598684Y-86538152D01*
X129598684Y-86538152D02*
X129646303Y-86633390D01*
X129646303Y-86633390D02*
X129693922Y-86681009D01*
X129693922Y-86681009D02*
X129789160Y-86728628D01*
X129789160Y-86728628D02*
X130170112Y-86728628D01*
X129312969Y-86204819D02*
X128979636Y-87204819D01*
X128979636Y-87204819D02*
X128646303Y-86204819D01*
X128360588Y-86300057D02*
X128312969Y-86252438D01*
X128312969Y-86252438D02*
X128217731Y-86204819D01*
X128217731Y-86204819D02*
X127979636Y-86204819D01*
X127979636Y-86204819D02*
X127884398Y-86252438D01*
X127884398Y-86252438D02*
X127836779Y-86300057D01*
X127836779Y-86300057D02*
X127789160Y-86395295D01*
X127789160Y-86395295D02*
X127789160Y-86490533D01*
X127789160Y-86490533D02*
X127836779Y-86633390D01*
X127836779Y-86633390D02*
X128408207Y-87204819D01*
X128408207Y-87204819D02*
X127789160Y-87204819D01*
D11*
%TO.C,J6*%
X150600000Y-74240000D02*
X150600000Y-76715000D01*
X150600000Y-78235000D02*
X150600000Y-77475000D01*
X151166529Y-76715000D02*
X150600000Y-76715000D01*
X151422470Y-74240000D02*
X150600000Y-74240000D01*
X151730000Y-78235000D02*
X150600000Y-78235000D01*
X152436529Y-76715000D02*
X152293471Y-76715000D01*
X152490000Y-76911529D02*
X152490000Y-76768471D01*
X152490000Y-78170000D02*
X152490000Y-78038471D01*
X152692470Y-74240000D02*
X152037530Y-74240000D01*
X152692470Y-78170000D02*
X152490000Y-78170000D01*
X154130000Y-74240000D02*
X153307530Y-74240000D01*
X154130000Y-74240000D02*
X154130000Y-78170000D01*
X154130000Y-78170000D02*
X153307530Y-78170000D01*
%TO.C,RV1*%
X121880000Y-90665000D02*
X121880000Y-90355000D01*
X121880000Y-92965000D02*
X121880000Y-92485000D01*
X121880000Y-95095000D02*
X121880000Y-94785000D01*
X126620000Y-90355000D02*
X121880000Y-90355000D01*
X126620000Y-91455000D02*
X126620000Y-90355000D01*
X126620000Y-95095000D02*
X121880000Y-95095000D01*
X126620000Y-95095000D02*
X126620000Y-93985000D01*
%TO.C,RV2*%
X121880000Y-85065000D02*
X121880000Y-84755000D01*
X121880000Y-87365000D02*
X121880000Y-86885000D01*
X121880000Y-89495000D02*
X121880000Y-89185000D01*
X126620000Y-84755000D02*
X121880000Y-84755000D01*
X126620000Y-85855000D02*
X126620000Y-84755000D01*
X126620000Y-89495000D02*
X121880000Y-89495000D01*
X126620000Y-89495000D02*
X126620000Y-88385000D01*
%TD*%
%LPC*%
D12*
%TO.C,J6*%
X151730000Y-77475000D03*
X153000000Y-77475000D03*
X151730000Y-76205000D03*
X153000000Y-76205000D03*
X151730000Y-74935000D03*
X153000000Y-74935000D03*
%TD*%
D13*
%TO.C,J1*%
X136250000Y-68725000D03*
D14*
X138750000Y-68725000D03*
X141250000Y-68725000D03*
X143750000Y-68725000D03*
%TD*%
D13*
%TO.C,J3*%
X136250000Y-60725000D03*
D14*
X138750000Y-60725000D03*
X141250000Y-60725000D03*
X143750000Y-60725000D03*
%TD*%
D15*
%TO.C,RV1*%
X122250000Y-91575000D03*
D16*
X126250000Y-92725000D03*
D15*
X122250000Y-93875000D03*
%TD*%
%TO.C,RV2*%
X122250000Y-85975000D03*
D16*
X126250000Y-87125000D03*
D15*
X122250000Y-88275000D03*
%TD*%
%LPD*%
M02*
