%TF.GenerationSoftware,KiCad,Pcbnew,8.0.4*%
%TF.CreationDate,2024-08-09T19:06:39+02:00*%
%TF.ProjectId,Water Tank Monitor,57617465-7220-4546-916e-6b204d6f6e69,rev?*%
%TF.SameCoordinates,Original*%
%TF.FileFunction,Soldermask,Top*%
%TF.FilePolarity,Negative*%
%FSLAX46Y46*%
G04 Gerber Fmt 4.6, Leading zero omitted, Abs format (unit mm)*
G04 Created by KiCad (PCBNEW 8.0.4) date 2024-08-09 19:06:39*
%MOMM*%
%LPD*%
G01*
G04 APERTURE LIST*
G04 Aperture macros list*
%AMRoundRect*
0 Rectangle with rounded corners*
0 $1 Rounding radius*
0 $2 $3 $4 $5 $6 $7 $8 $9 X,Y pos of 4 corners*
0 Add a 4 corners polygon primitive as box body*
4,1,4,$2,$3,$4,$5,$6,$7,$8,$9,$2,$3,0*
0 Add four circle primitives for the rounded corners*
1,1,$1+$1,$2,$3*
1,1,$1+$1,$4,$5*
1,1,$1+$1,$6,$7*
1,1,$1+$1,$8,$9*
0 Add four rect primitives between the rounded corners*
20,1,$1+$1,$2,$3,$4,$5,0*
20,1,$1+$1,$4,$5,$6,$7,0*
20,1,$1+$1,$6,$7,$8,$9,0*
20,1,$1+$1,$8,$9,$2,$3,0*%
G04 Aperture macros list end*
%ADD10C,1.000000*%
%ADD11RoundRect,0.200000X-0.200000X-0.275000X0.200000X-0.275000X0.200000X0.275000X-0.200000X0.275000X0*%
%ADD12RoundRect,0.250000X-0.600000X-0.725000X0.600000X-0.725000X0.600000X0.725000X-0.600000X0.725000X0*%
%ADD13O,1.700000X1.950000*%
%ADD14RoundRect,0.225000X-0.225000X-0.250000X0.225000X-0.250000X0.225000X0.250000X-0.225000X0.250000X0*%
%ADD15RoundRect,0.225000X0.225000X0.250000X-0.225000X0.250000X-0.225000X-0.250000X0.225000X-0.250000X0*%
%ADD16R,0.550000X1.600000*%
%ADD17R,1.600000X0.550000*%
%ADD18R,0.400000X1.900000*%
%ADD19R,1.020000X1.780000*%
%ADD20RoundRect,0.218750X0.218750X0.256250X-0.218750X0.256250X-0.218750X-0.256250X0.218750X-0.256250X0*%
%ADD21RoundRect,0.200000X0.200000X0.275000X-0.200000X0.275000X-0.200000X-0.275000X0.200000X-0.275000X0*%
G04 APERTURE END LIST*
D10*
%TO.C,J5*%
X151730000Y-74925000D03*
X153000000Y-74925000D03*
X151730000Y-76195000D03*
X153000000Y-76195000D03*
X151730000Y-77465000D03*
X153000000Y-77465000D03*
%TD*%
D11*
%TO.C,R3*%
X146175000Y-85000000D03*
X147825000Y-85000000D03*
%TD*%
D12*
%TO.C,J1*%
X136250000Y-68725000D03*
D13*
X138750000Y-68725000D03*
X141250000Y-68725000D03*
X143750000Y-68725000D03*
%TD*%
D14*
%TO.C,C3*%
X136450000Y-89800000D03*
X138000000Y-89800000D03*
%TD*%
D11*
%TO.C,R1*%
X131575000Y-82750000D03*
X133225000Y-82750000D03*
%TD*%
D15*
%TO.C,C4*%
X147775000Y-79000000D03*
X146225000Y-79000000D03*
%TD*%
D12*
%TO.C,J3*%
X136250000Y-60725000D03*
D13*
X138750000Y-60725000D03*
X141250000Y-60725000D03*
X143750000Y-60725000D03*
%TD*%
D11*
%TO.C,R4*%
X146175000Y-83500000D03*
X147825000Y-83500000D03*
%TD*%
D14*
%TO.C,C1*%
X139575000Y-88250000D03*
X141125000Y-88250000D03*
%TD*%
D16*
%TO.C,U1*%
X142800000Y-77725000D03*
X142000000Y-77725000D03*
X141200000Y-77725000D03*
X140400000Y-77725000D03*
X139600000Y-77725000D03*
X138800000Y-77725000D03*
X138000000Y-77725000D03*
X137200000Y-77725000D03*
D17*
X135750000Y-79175000D03*
X135750000Y-79975000D03*
X135750000Y-80775000D03*
X135750000Y-81575000D03*
X135750000Y-82375000D03*
X135750000Y-83175000D03*
X135750000Y-83975000D03*
X135750000Y-84775000D03*
D16*
X137200000Y-86225000D03*
X138000000Y-86225000D03*
X138800000Y-86225000D03*
X139600000Y-86225000D03*
X140400000Y-86225000D03*
X141200000Y-86225000D03*
X142000000Y-86225000D03*
X142800000Y-86225000D03*
D17*
X144250000Y-84775000D03*
X144250000Y-83975000D03*
X144250000Y-83175000D03*
X144250000Y-82375000D03*
X144250000Y-81575000D03*
X144250000Y-80775000D03*
X144250000Y-79975000D03*
X144250000Y-79175000D03*
%TD*%
D18*
%TO.C,Y1*%
X135600000Y-75000000D03*
X136800000Y-75000000D03*
X138000000Y-75000000D03*
%TD*%
D19*
%TO.C,J4*%
X136190000Y-94865000D03*
X138730000Y-91885000D03*
X141270000Y-94865000D03*
X143810000Y-91885000D03*
%TD*%
D20*
%TO.C,D2*%
X133187500Y-81275000D03*
X131612500Y-81275000D03*
%TD*%
D14*
%TO.C,C5*%
X146225000Y-80500000D03*
X147775000Y-80500000D03*
%TD*%
D21*
%TO.C,R2*%
X147825000Y-82000000D03*
X146175000Y-82000000D03*
%TD*%
D14*
%TO.C,C2*%
X136450000Y-88250000D03*
X138000000Y-88250000D03*
%TD*%
M02*
